<svg width="1280" height="720" viewBox="0 0 1280 720" fill="none" xmlns="http://www.w3.org/2000/svg">
<rect width="1280" height="720" fill="url(#paint0_linear_3_3)"/>
<g filter="url(#filter0_d_3_3)">
<rect x="51" y="47" width="1165" height="619" rx="20" fill="#FFFBFB"/>
</g>
<g filter="url(#filter1_d_3_3)">
<path d="M27 225C27 213.954 35.9543 205 47 205H65C76.0457 205 85 213.954 85 225V418C85 429.046 76.0457 438 65 438H47C35.9543 438 27 429.046 27 418V225Z" fill="#121111"/>
</g>
<g filter="url(#filter2_d_3_3)">
<path d="M352 36C352 24.9543 360.954 16 372 16H887C898.046 16 907 24.9543 907 36V59C907 70.0457 898.046 79 887 79H372C360.954 79 352 70.0457 352 59V36Z" fill="#121111"/>
</g>
<g filter="url(#filter3_d_3_3)">
<path d="M27 611C27 599.954 35.9543 591 47 591H57C68.0457 591 77 599.954 77 611V621C77 632.046 68.0457 641 57 641H47C35.9543 641 27 632.046 27 621V611Z" fill="#121111"/>
</g>
<circle cx="54.5" cy="247.5" r="27.5" fill="#BBB7B7"/>
<path d="M72.5 308C73.6935 308 74.8381 308.444 75.682 309.235C76.5259 310.026 77 311.099 77 312.217V333.783C77 334.901 76.5259 335.974 75.682 336.765C74.8381 337.556 73.6935 338 72.5 338H41.5C40.9091 338 40.3239 337.891 39.7779 337.679C39.232 337.467 38.7359 337.156 38.318 336.765C37.9002 336.373 37.5687 335.908 37.3425 335.397C37.1164 334.885 37 334.336 37 333.783V312.217C37 311.099 37.4741 310.026 38.318 309.235C39.1619 308.444 40.3065 308 41.5 308H72.5ZM72.5 310.812H41.5C41.1022 310.812 40.7206 310.96 40.4393 311.223C40.158 311.487 40 311.845 40 312.217V333.783C40 334.559 40.672 335.188 41.5 335.188H72.5C72.8978 335.188 73.2794 335.04 73.5607 334.777C73.842 334.513 74 334.155 74 333.783V312.217C74 311.845 73.842 311.487 73.5607 311.223C73.2794 310.96 72.8978 310.812 72.5 310.812ZM52.5 323.933C52.8978 323.933 53.2794 324.081 53.5607 324.344C53.842 324.608 54 324.965 54 325.338V326.262L53.984 326.465C53.658 328.551 51.796 329.558 49 329.558C46.204 329.558 44.34 328.551 44.016 326.465L44 326.259V325.338C44 324.965 44.158 324.608 44.4393 324.344C44.7206 324.081 45.1022 323.933 45.5 323.933H52.5ZM59.504 324.862H68.5C68.88 324.862 69.2459 324.998 69.5236 325.241C69.8013 325.484 69.9701 325.817 69.9961 326.172C70.022 326.528 69.903 326.879 69.6631 327.155C69.4233 327.432 69.0805 327.612 68.704 327.661L68.5 327.674H59.504C59.124 327.674 58.7581 327.538 58.4804 327.295C58.2027 327.052 58.0339 326.719 58.0079 326.364C57.982 326.009 58.101 325.657 58.3409 325.381C58.5807 325.105 58.9235 324.924 59.3 324.875L59.504 324.862ZM49 316.439C49.7956 316.439 50.5587 316.735 51.1213 317.262C51.6839 317.789 52 318.505 52 319.25C52 319.996 51.6839 320.711 51.1213 321.238C50.5587 321.766 49.7956 322.062 49 322.062C48.2044 322.062 47.4413 321.766 46.8787 321.238C46.3161 320.711 46 319.996 46 319.25C46 318.505 46.3161 317.789 46.8787 317.262C47.4413 316.735 48.2044 316.439 49 316.439ZM59.504 318.309H68.5C68.88 318.309 69.2459 318.445 69.5236 318.688C69.8013 318.931 69.9701 319.264 69.9961 319.619C70.022 319.975 69.903 320.326 69.6631 320.602C69.4233 320.879 69.0805 321.059 68.704 321.108L68.5 321.121H59.504C59.124 321.121 58.7581 320.985 58.4804 320.742C58.2027 320.499 58.0339 320.166 58.0079 319.811C57.982 319.456 58.101 319.104 58.3409 318.828C58.5807 318.552 58.9235 318.371 59.3 318.322L59.504 318.309Z" fill="white"/>
<path d="M55.418 226.353C55.1518 226.124 54.824 226 54.4865 226C54.149 226 53.8212 226.124 53.555 226.353L32 244.885L33.8645 247.485L36.5 245.219V265.692C36.5016 266.569 36.8182 267.409 37.3804 268.029C37.9427 268.649 38.7048 268.998 39.5 269H69.5C70.2952 268.998 71.0573 268.649 71.6196 268.029C72.1818 267.409 72.4984 266.569 72.5 265.692V245.234L75.1355 247.5L77 244.9L55.418 226.353ZM57.5 265.692H51.5V252.461H57.5V265.692ZM60.5 265.692V252.461C60.4992 251.584 60.1829 250.743 59.6204 250.123C59.058 249.503 58.2954 249.154 57.5 249.153H51.5C50.7046 249.154 49.942 249.503 49.3796 250.123C48.8171 250.743 48.5008 251.584 48.5 252.461V265.692H39.5V242.64L54.5 229.757L69.5 242.657V265.692H60.5Z" fill="white"/>
<path d="M50.3061 383.816C52.8401 379.272 54.106 377 56 377C57.894 377 59.1599 379.272 61.6939 383.816L62.3498 384.992C63.0698 386.284 63.4298 386.93 63.9898 387.356C64.5498 387.782 65.2498 387.94 66.6497 388.256L67.9217 388.544C72.8416 389.658 75.2995 390.214 75.8855 392.096C76.4695 393.976 74.7936 395.938 71.4396 399.86L70.5717 400.874C69.6197 401.988 69.1417 402.546 68.9277 403.234C68.7137 403.924 68.7857 404.668 68.9297 406.154L69.0617 407.508C69.5677 412.742 69.8217 415.358 68.2897 416.52C66.7577 417.684 64.4538 416.622 59.8499 414.502L58.6559 413.954C57.348 413.35 56.694 413.05 56 413.05C55.306 413.05 54.652 413.35 53.3441 413.954L52.1521 414.502C47.5462 416.622 45.2423 417.682 43.7123 416.522C42.1783 415.358 42.4323 412.742 42.9383 407.508L43.0703 406.156C43.2143 404.668 43.2863 403.924 43.0703 403.236C42.8583 402.546 42.3803 401.988 41.4283 400.876L40.5604 399.86C37.2064 395.94 35.5305 393.978 36.1145 392.096C36.7005 390.214 39.1604 389.656 44.0803 388.544L45.3523 388.256C46.7502 387.94 47.4482 387.782 48.0102 387.356C48.5702 386.93 48.9302 386.284 49.6501 384.992L50.3061 383.816Z" stroke="white" stroke-width="1.5"/>
<g filter="url(#filter4_d_3_3)">
<rect x="113" y="599" width="221" height="60" rx="15" fill="url(#paint1_linear_3_3)" shape-rendering="crispEdges"/>
</g>
<g filter="url(#filter5_d_3_3)">
<rect x="113" y="531" width="221" height="60" rx="15" fill="url(#paint2_linear_3_3)" shape-rendering="crispEdges"/>
</g>
<g filter="url(#filter6_d_3_3)">
<rect x="113" y="459" width="221" height="60" rx="15" fill="url(#paint3_linear_3_3)" shape-rendering="crispEdges"/>
</g>
<g filter="url(#filter7_d_3_3)">
<rect x="113" y="383" width="221" height="60" rx="15" fill="url(#paint4_linear_3_3)" shape-rendering="crispEdges"/>
</g>
<g filter="url(#filter8_d_3_3)">
<rect x="113" y="220" width="221" height="145" rx="15" fill="url(#paint5_linear_3_3)" shape-rendering="crispEdges"/>
</g>
<g filter="url(#filter9_d_3_3)">
<rect x="113" y="60" width="221" height="145" rx="15" fill="url(#paint6_linear_3_3)" shape-rendering="crispEdges"/>
</g>
<g opacity="0.3">
<path d="M139.688 615.922C139.688 615.197 139.457 614.501 139.047 613.988C138.637 613.476 138.08 613.188 137.5 613.188C136.92 613.188 136.363 613.476 135.953 613.988C135.543 614.501 135.312 615.197 135.312 615.922C135.312 616.647 135.543 617.343 135.953 617.855C136.363 618.368 136.92 618.656 137.5 618.656C138.08 618.656 138.637 618.368 139.047 617.855C139.457 617.343 139.688 616.647 139.688 615.922ZM127.875 625.219C128.455 625.219 129.012 624.931 129.422 624.418C129.832 623.905 130.062 623.21 130.062 622.484C130.062 621.759 129.832 621.064 129.422 620.551C129.012 620.038 128.455 619.75 127.875 619.75C127.295 619.75 126.738 620.038 126.328 620.551C125.918 621.064 125.688 621.759 125.688 622.484C125.688 623.21 125.918 623.905 126.328 624.418C126.738 624.931 127.295 625.219 127.875 625.219ZM121.75 639.438C120.782 639.438 120 640.415 120 641.625C120 642.835 120.782 643.812 121.75 643.812H153.25C154.218 643.812 155 642.835 155 641.625C155 640.415 154.218 639.438 153.25 639.438H121.75ZM147.125 625.219C147.705 625.219 148.262 624.931 148.672 624.418C149.082 623.905 149.312 623.21 149.312 622.484C149.312 621.759 149.082 621.064 148.672 620.551C148.262 620.038 147.705 619.75 147.125 619.75C146.545 619.75 145.988 620.038 145.578 620.551C145.168 621.064 144.938 621.759 144.938 622.484C144.938 623.21 145.168 623.905 145.578 624.418C145.988 624.931 146.545 625.219 147.125 625.219ZM130.938 632.431L132.409 635.842C132.753 636.642 133.546 636.936 134.186 636.512C134.826 636.088 135.061 635.09 134.722 634.29L132.737 629.676C132.83 629.56 132.912 629.43 132.972 629.279L134.438 625.868V629.594C134.438 630.804 135.22 631.781 136.188 631.781H138.812C139.78 631.781 140.562 630.804 140.562 629.594V625.868L142.034 629.279C142.099 629.43 142.176 629.56 142.269 629.676L140.284 634.29C139.939 635.09 140.18 636.081 140.82 636.512C141.459 636.942 142.252 636.642 142.597 635.842L144.062 632.431V635.062C144.062 636.272 144.845 637.25 145.812 637.25H148.438C149.405 637.25 150.188 636.272 150.188 635.062V632.431L151.659 635.842C152.003 636.642 152.796 636.936 153.436 636.512C154.076 636.088 154.311 635.09 153.972 634.29L151.899 629.484C151.062 627.536 149.433 626.319 147.661 626.319H146.589C145.698 626.319 144.845 626.627 144.106 627.181L142.269 622.922C141.432 620.974 139.802 619.757 138.03 619.757H136.964C135.192 619.757 133.568 620.974 132.726 622.922L130.888 627.181C130.15 626.627 129.297 626.319 128.405 626.319H127.339C125.567 626.319 123.943 627.536 123.101 629.484L121.034 634.283C120.689 635.083 120.93 636.074 121.57 636.505C122.209 636.936 123.002 636.635 123.347 635.835L124.812 632.431V635.062C124.812 636.272 125.595 637.25 126.562 637.25H129.188C130.155 637.25 130.938 636.272 130.938 635.062V632.431Z" fill="white"/>
</g>
<g opacity="0.3" clip-path="url(#clip0_3_3)">
<path d="M142.5 480.875C142.5 480.378 142.698 479.901 143.049 479.549C143.401 479.198 143.878 479 144.375 479H154.375C154.746 479 155.108 479.11 155.416 479.317C155.724 479.523 155.964 479.815 156.106 480.158C156.247 480.5 156.285 480.877 156.212 481.24C156.14 481.604 155.962 481.938 155.7 482.2L150.975 486.93C151.755 487.12 152.485 487.38 153.142 487.727C154.997 488.705 156.252 490.385 156.252 492.74C156.252 494.372 155.675 495.76 154.68 496.807C153.715 497.827 152.445 498.44 151.16 498.75C148.635 499.357 145.597 498.907 143.35 497.432C142.966 497.147 142.705 496.725 142.621 496.254C142.538 495.782 142.637 495.297 142.9 494.896C143.162 494.496 143.568 494.211 144.033 494.099C144.499 493.988 144.99 494.059 145.405 494.297C146.74 495.172 148.705 495.482 150.282 495.102C151.047 494.92 151.607 494.6 151.957 494.23C152.28 493.89 152.502 493.43 152.502 492.74C152.502 491.97 152.195 491.467 151.392 491.045C150.46 490.552 148.942 490.25 146.877 490.25C146.507 490.25 146.145 490.14 145.837 489.933C145.529 489.727 145.289 489.435 145.147 489.092C145.005 488.75 144.968 488.373 145.04 488.01C145.112 487.646 145.291 487.312 145.552 487.05L149.852 482.75H144.375C143.878 482.75 143.401 482.552 143.049 482.201C142.698 481.849 142.5 481.372 142.5 480.875ZM133.532 495.282C132.657 495.157 131.607 495.565 131.075 496.712C130.975 496.941 130.83 497.147 130.648 497.319C130.467 497.49 130.254 497.624 130.02 497.712C129.787 497.8 129.538 497.841 129.289 497.832C129.04 497.822 128.795 497.763 128.568 497.658C128.342 497.553 128.139 497.404 127.971 497.219C127.803 497.035 127.674 496.818 127.591 496.583C127.508 496.348 127.472 496.098 127.487 495.849C127.501 495.6 127.565 495.357 127.675 495.132C128.945 492.397 131.647 491.22 134.07 491.57C136.57 491.932 138.75 493.932 138.75 497.125C138.75 500.707 136.03 502.605 134.275 503.827C133.505 504.367 132.847 504.82 132.345 505.26H137.5C137.997 505.26 138.474 505.458 138.826 505.809C139.177 506.161 139.375 506.638 139.375 507.135C139.375 507.632 139.177 508.109 138.826 508.461C138.474 508.812 137.997 509.01 137.5 509.01H129.375C128.878 509.01 128.401 508.812 128.049 508.461C127.698 508.109 127.5 507.632 127.5 507.135C127.5 505.41 128.25 504.107 129.175 503.11C130.045 502.18 131.175 501.42 132.05 500.81C134.05 499.41 135 498.55 135 497.125C135 495.942 134.332 495.4 133.532 495.282ZM134.01 469.222C134.309 469.383 134.559 469.621 134.733 469.912C134.908 470.203 135 470.536 135 470.875V482.8H136.777C137.275 482.8 137.752 482.998 138.103 483.349C138.455 483.701 138.652 484.178 138.652 484.675C138.652 485.172 138.455 485.649 138.103 486.001C137.752 486.352 137.275 486.55 136.777 486.55H129.397C128.9 486.55 128.423 486.352 128.072 486.001C127.72 485.649 127.522 485.172 127.522 484.675C127.522 484.178 127.72 483.701 128.072 483.349C128.423 482.998 128.9 482.8 129.397 482.8H131.25V474.375L130.415 474.932C130.001 475.202 129.498 475.297 129.014 475.198C128.531 475.098 128.106 474.812 127.832 474.401C127.558 473.99 127.457 473.488 127.552 473.003C127.646 472.519 127.927 472.091 128.335 471.812L132.085 469.312C132.367 469.124 132.696 469.016 133.035 469C133.374 468.984 133.711 469.06 134.01 469.22V469.222Z" fill="white"/>
</g>
<g opacity="0.3" clip-path="url(#clip1_3_3)">
<path d="M138.5 552.875C138.5 552.378 138.698 551.901 139.049 551.549C139.401 551.198 139.878 551 140.375 551H150.375C150.746 551 151.108 551.11 151.416 551.317C151.724 551.523 151.964 551.815 152.106 552.158C152.247 552.5 152.285 552.877 152.212 553.24C152.14 553.604 151.962 553.938 151.7 554.2L146.975 558.93C147.755 559.12 148.485 559.38 149.142 559.727C150.997 560.705 152.252 562.385 152.252 564.74C152.252 566.372 151.675 567.76 150.68 568.807C149.715 569.827 148.445 570.44 147.16 570.75C144.635 571.357 141.597 570.907 139.35 569.432C138.966 569.147 138.705 568.725 138.621 568.254C138.538 567.782 138.637 567.297 138.9 566.896C139.162 566.496 139.568 566.211 140.033 566.099C140.499 565.988 140.99 566.059 141.405 566.297C142.74 567.172 144.705 567.482 146.282 567.102C147.047 566.92 147.607 566.6 147.957 566.23C148.28 565.89 148.502 565.43 148.502 564.74C148.502 563.97 148.195 563.467 147.392 563.045C146.46 562.552 144.942 562.25 142.877 562.25C142.507 562.25 142.145 562.14 141.837 561.933C141.529 561.727 141.289 561.435 141.147 561.092C141.005 560.75 140.968 560.373 141.04 560.01C141.112 559.646 141.291 559.312 141.552 559.05L145.852 554.75H140.375C139.878 554.75 139.401 554.552 139.049 554.201C138.698 553.849 138.5 553.372 138.5 552.875ZM129.532 567.282C128.657 567.157 127.607 567.565 127.075 568.712C126.975 568.941 126.83 569.147 126.648 569.319C126.467 569.49 126.254 569.624 126.02 569.712C125.787 569.8 125.538 569.841 125.289 569.832C125.04 569.822 124.795 569.763 124.568 569.658C124.342 569.553 124.139 569.404 123.971 569.219C123.803 569.035 123.674 568.818 123.591 568.583C123.508 568.348 123.472 568.098 123.487 567.849C123.501 567.6 123.565 567.357 123.675 567.132C124.945 564.397 127.647 563.22 130.07 563.57C132.57 563.932 134.75 565.932 134.75 569.125C134.75 572.707 132.03 574.605 130.275 575.827C129.505 576.367 128.847 576.82 128.345 577.26H133.5C133.997 577.26 134.474 577.458 134.826 577.809C135.177 578.161 135.375 578.638 135.375 579.135C135.375 579.632 135.177 580.109 134.826 580.461C134.474 580.812 133.997 581.01 133.5 581.01H125.375C124.878 581.01 124.401 580.812 124.049 580.461C123.698 580.109 123.5 579.632 123.5 579.135C123.5 577.41 124.25 576.107 125.175 575.11C126.045 574.18 127.175 573.42 128.05 572.81C130.05 571.41 131 570.55 131 569.125C131 567.942 130.332 567.4 129.532 567.282ZM130.01 541.222C130.309 541.383 130.559 541.621 130.733 541.912C130.908 542.203 131 542.536 131 542.875V554.8H132.777C133.275 554.8 133.752 554.998 134.103 555.349C134.455 555.701 134.652 556.178 134.652 556.675C134.652 557.172 134.455 557.649 134.103 558.001C133.752 558.352 133.275 558.55 132.777 558.55H125.397C124.9 558.55 124.423 558.352 124.072 558.001C123.72 557.649 123.522 557.172 123.522 556.675C123.522 556.178 123.72 555.701 124.072 555.349C124.423 554.998 124.9 554.8 125.397 554.8H127.25V546.375L126.415 546.932C126.001 547.202 125.498 547.297 125.014 547.198C124.531 547.098 124.106 546.812 123.832 546.401C123.558 545.99 123.457 545.488 123.552 545.003C123.646 544.519 123.927 544.091 124.335 543.812L128.085 541.312C128.367 541.124 128.696 541.016 129.035 541C129.374 540.984 129.711 541.06 130.01 541.22V541.222Z" fill="white"/>
</g>
<g opacity="0.3" clip-path="url(#clip2_3_3)">
<path d="M142.5 403.875C142.5 403.378 142.698 402.901 143.049 402.549C143.401 402.198 143.878 402 144.375 402H154.375C154.746 402 155.108 402.11 155.416 402.317C155.724 402.523 155.964 402.815 156.106 403.158C156.247 403.5 156.285 403.877 156.212 404.24C156.14 404.604 155.962 404.938 155.7 405.2L150.975 409.93C151.755 410.12 152.485 410.38 153.142 410.728C154.997 411.705 156.252 413.385 156.252 415.74C156.252 417.373 155.675 418.76 154.68 419.808C153.715 420.828 152.445 421.44 151.16 421.75C148.635 422.358 145.597 421.908 143.35 420.433C142.966 420.147 142.705 419.725 142.621 419.254C142.538 418.782 142.637 418.297 142.9 417.896C143.162 417.496 143.568 417.211 144.033 417.099C144.499 416.988 144.99 417.059 145.405 417.298C146.74 418.173 148.705 418.483 150.282 418.103C151.047 417.92 151.607 417.6 151.957 417.23C152.28 416.89 152.502 416.43 152.502 415.74C152.502 414.97 152.195 414.468 151.392 414.045C150.46 413.553 148.942 413.25 146.877 413.25C146.507 413.25 146.145 413.14 145.837 412.933C145.529 412.727 145.289 412.435 145.147 412.092C145.005 411.75 144.968 411.373 145.04 411.01C145.112 410.646 145.291 410.312 145.552 410.05L149.852 405.75H144.375C143.878 405.75 143.401 405.552 143.049 405.201C142.698 404.849 142.5 404.372 142.5 403.875ZM133.532 418.283C132.657 418.158 131.607 418.565 131.075 419.713C130.975 419.941 130.83 420.147 130.648 420.319C130.467 420.49 130.254 420.624 130.02 420.712C129.787 420.8 129.538 420.841 129.289 420.832C129.04 420.822 128.795 420.763 128.568 420.658C128.342 420.553 128.139 420.404 127.971 420.219C127.803 420.035 127.674 419.818 127.591 419.583C127.508 419.348 127.472 419.098 127.487 418.849C127.501 418.6 127.565 418.357 127.675 418.133C128.945 415.398 131.647 414.22 134.07 414.57C136.57 414.933 138.75 416.933 138.75 420.125C138.75 423.708 136.03 425.605 134.275 426.828C133.505 427.368 132.847 427.82 132.345 428.26H137.5C137.997 428.26 138.474 428.458 138.826 428.809C139.177 429.161 139.375 429.638 139.375 430.135C139.375 430.632 139.177 431.109 138.826 431.461C138.474 431.812 137.997 432.01 137.5 432.01H129.375C128.878 432.01 128.401 431.812 128.049 431.461C127.698 431.109 127.5 430.632 127.5 430.135C127.5 428.41 128.25 427.108 129.175 426.11C130.045 425.18 131.175 424.42 132.05 423.81C134.05 422.41 135 421.55 135 420.125C135 418.943 134.332 418.4 133.532 418.283ZM134.01 392.223C134.309 392.383 134.559 392.621 134.733 392.912C134.908 393.203 135 393.536 135 393.875V405.8H136.777C137.275 405.8 137.752 405.998 138.103 406.349C138.455 406.701 138.652 407.178 138.652 407.675C138.652 408.172 138.455 408.649 138.103 409.001C137.752 409.352 137.275 409.55 136.777 409.55H129.397C128.9 409.55 128.423 409.352 128.072 409.001C127.72 408.649 127.522 408.172 127.522 407.675C127.522 407.178 127.72 406.701 128.072 406.349C128.423 405.998 128.9 405.8 129.397 405.8H131.25V397.375L130.415 397.933C130.001 398.202 129.498 398.297 129.014 398.198C128.531 398.098 128.106 397.812 127.832 397.401C127.558 396.99 127.457 396.488 127.552 396.003C127.646 395.519 127.927 395.091 128.335 394.813L132.085 392.313C132.367 392.124 132.696 392.016 133.035 392C133.374 391.984 133.711 392.06 134.01 392.22V392.223Z" fill="white"/>
</g>
<g filter="url(#filter10_d_3_3)">
<rect x="352" y="110" width="555" height="117" fill="#FFFBFB"/>
</g>
<g filter="url(#filter11_d_3_3)">
<rect x="352" y="247" width="555" height="137" fill="#FFFBFB"/>
</g>
<g filter="url(#filter12_d_3_3)">
<rect x="352" y="394" width="555" height="126" fill="#FFFBFB"/>
</g>
<g filter="url(#filter13_d_3_3)">
<rect x="352" y="529" width="555" height="130" fill="#FFFBFB"/>
</g>
<g filter="url(#filter14_d_3_3)">
<rect x="930" y="60" width="263" height="71" fill="#FFFBFB"/>
</g>
<g filter="url(#filter15_d_3_3)">
<rect x="930" y="139" width="263" height="81" fill="#FFFBFB"/>
</g>
<g filter="url(#filter16_d_3_3)">
<rect x="930" y="227" width="263" height="247" fill="#FFFBFB"/>
</g>
<g filter="url(#filter17_d_3_3)">
<rect x="930" y="482" width="263" height="80" fill="#FFFDFD"/>
</g>
<g filter="url(#filter18_d_3_3)">
<rect x="930" y="570" width="263" height="89" fill="#FFFDFD"/>
</g>
<g clip-path="url(#clip3_3_3)">
<mask id="mask0_3_3" style="mask-type:luminance" maskUnits="userSpaceOnUse" x="36" y="601" width="30" height="30">
<path d="M36 601H66V631H36V601Z" fill="white"/>
</mask>
<g mask="url(#mask0_3_3)">
<path fill-rule="evenodd" clip-rule="evenodd" d="M58.4906 602.251C58.4758 602.063 58.4234 601.88 58.3364 601.712C58.2495 601.545 58.1298 601.397 57.9845 601.277C57.8392 601.157 57.6712 601.067 57.4906 601.014C57.31 600.96 57.1204 600.943 56.933 600.964C56.7457 600.984 56.5645 601.043 56.4001 601.135C56.2358 601.227 56.0917 601.352 55.9763 601.501C55.861 601.65 55.7769 601.821 55.7289 602.003C55.6808 602.185 55.67 602.375 55.6969 602.562L56.9812 614.125H55.3556C52.2806 614.125 49.9256 616.842 49.3612 619.863C48.9288 622.11 48.1708 624.283 47.1113 626.313C46.1888 628.09 45.375 629.125 45.375 629.125H61.3125C61.3125 629.125 65.2125 625.874 65.9775 618.831C66.2625 616.176 63.9562 614.125 61.29 614.125H59.8125L58.4906 602.251ZM43.0312 605.688C42.6583 605.688 42.3006 605.836 42.0369 606.099C41.7732 606.363 41.625 606.721 41.625 607.094C41.625 607.467 41.7732 607.824 42.0369 608.088C42.3006 608.352 42.6583 608.5 43.0312 608.5H51.4688C51.8417 608.5 52.1994 608.352 52.4631 608.088C52.7268 607.824 52.875 607.467 52.875 607.094C52.875 606.721 52.7268 606.363 52.4631 606.099C52.1994 605.836 51.8417 605.688 51.4688 605.688H43.0312ZM37.4062 612.25C37.0333 612.25 36.6756 612.398 36.4119 612.662C36.1482 612.926 36 613.283 36 613.656C36 614.029 36.1482 614.387 36.4119 614.651C36.6756 614.914 37.0333 615.063 37.4062 615.063H47.7188C48.0917 615.063 48.4494 614.914 48.7131 614.651C48.9768 614.387 49.125 614.029 49.125 613.656C49.125 613.283 48.9768 612.926 48.7131 612.662C48.4494 612.398 48.0917 612.25 47.7188 612.25H37.4062ZM37.875 620.219C37.875 619.846 38.0232 619.488 38.2869 619.224C38.5506 618.961 38.9083 618.813 39.2812 618.813H43.9688C44.3417 618.813 44.6994 618.961 44.9631 619.224C45.2268 619.488 45.375 619.846 45.375 620.219C45.375 620.592 45.2268 620.949 44.9631 621.213C44.6994 621.477 44.3417 621.625 43.9688 621.625H39.2812C38.9083 621.625 38.5506 621.477 38.2869 621.213C38.0232 620.949 37.875 620.592 37.875 620.219ZM50.2369 626.313C50.9737 624.689 51.6994 622.675 52.1269 620.378C52.5356 618.188 54.0862 616.938 55.3537 616.938H61.2919C61.9144 616.938 62.4506 617.181 62.7863 617.506C62.9295 617.632 63.0401 617.79 63.1087 617.968C63.1773 618.146 63.2017 618.338 63.18 618.528C62.8519 621.569 61.8525 623.738 60.9806 625.116C60.719 625.533 60.4302 625.933 60.1163 626.313H58.2431C59.2537 624.989 59.9062 623.073 59.9062 621.156H58.5C57.8419 623.461 56.49 625.071 54.4463 626.313H50.2369Z" fill="white"/>
</g>
</g>
<path d="M375.409 54V42.3636H379.341C380.25 42.3636 380.996 42.5189 381.58 42.8295C382.163 43.1364 382.595 43.5587 382.875 44.0966C383.155 44.6345 383.295 45.2462 383.295 45.9318C383.295 46.6174 383.155 47.2254 382.875 47.7557C382.595 48.286 382.165 48.7027 381.585 49.0057C381.006 49.3049 380.265 49.4545 379.364 49.4545H376.182V48.1818H379.318C379.939 48.1818 380.439 48.0909 380.818 47.9091C381.201 47.7273 381.477 47.4697 381.648 47.1364C381.822 46.7992 381.909 46.3977 381.909 45.9318C381.909 45.4659 381.822 45.0587 381.648 44.7102C381.473 44.3617 381.195 44.0928 380.812 43.9034C380.43 43.7102 379.924 43.6136 379.295 43.6136H376.818V54H375.409ZM380.886 48.7727L383.75 54H382.114L379.295 48.7727H380.886ZM385.643 54V42.3636H392.666V43.6136H387.053V47.5455H392.303V48.7955H387.053V52.75H392.757V54H385.643ZM395.206 54V42.3636H396.615V52.75H402.024V54H395.206ZM405.418 54H403.94L408.213 42.3636H409.668L413.94 54H412.463L408.986 44.2045H408.895L405.418 54ZM405.963 49.4545H411.918V50.7045H405.963V49.4545ZM413.757 43.6136V42.3636H422.484V43.6136H418.825V54H417.416V43.6136H413.757ZM433.993 48.1818C433.993 49.4091 433.771 50.4697 433.328 51.3636C432.885 52.2576 432.277 52.947 431.504 53.4318C430.732 53.9167 429.849 54.1591 428.857 54.1591C427.864 54.1591 426.982 53.9167 426.209 53.4318C425.436 52.947 424.828 52.2576 424.385 51.3636C423.942 50.4697 423.72 49.4091 423.72 48.1818C423.72 46.9545 423.942 45.8939 424.385 45C424.828 44.1061 425.436 43.4167 426.209 42.9318C426.982 42.447 427.864 42.2045 428.857 42.2045C429.849 42.2045 430.732 42.447 431.504 42.9318C432.277 43.4167 432.885 44.1061 433.328 45C433.771 45.8939 433.993 46.9545 433.993 48.1818ZM432.629 48.1818C432.629 47.1742 432.461 46.3239 432.124 45.6307C431.79 44.9375 431.338 44.4129 430.766 44.0568C430.197 43.7008 429.561 43.5227 428.857 43.5227C428.152 43.5227 427.514 43.7008 426.942 44.0568C426.374 44.4129 425.921 44.9375 425.584 45.6307C425.25 46.3239 425.084 47.1742 425.084 48.1818C425.084 49.1894 425.25 50.0398 425.584 50.733C425.921 51.4261 426.374 51.9508 426.942 52.3068C427.514 52.6629 428.152 52.8409 428.857 52.8409C429.561 52.8409 430.197 52.6629 430.766 52.3068C431.338 51.9508 431.79 51.4261 432.124 50.733C432.461 50.0398 432.629 49.1894 432.629 48.1818ZM428.243 41.1818L429.629 38.5455H431.197L429.425 41.1818H428.243ZM436.362 54V42.3636H440.294C441.203 42.3636 441.949 42.5189 442.533 42.8295C443.116 43.1364 443.548 43.5587 443.828 44.0966C444.108 44.6345 444.249 45.2462 444.249 45.9318C444.249 46.6174 444.108 47.2254 443.828 47.7557C443.548 48.286 443.118 48.7027 442.538 49.0057C441.959 49.3049 441.218 49.4545 440.317 49.4545H437.135V48.1818H440.271C440.893 48.1818 441.393 48.0909 441.771 47.9091C442.154 47.7273 442.43 47.4697 442.601 47.1364C442.775 46.7992 442.862 46.3977 442.862 45.9318C442.862 45.4659 442.775 45.0587 442.601 44.7102C442.427 44.3617 442.148 44.0928 441.766 43.9034C441.383 43.7102 440.877 43.6136 440.249 43.6136H437.771V54H436.362ZM441.839 48.7727L444.703 54H443.067L440.249 48.7727H441.839ZM448.006 42.3636V54H446.597V42.3636H448.006ZM460.649 48.1818C460.649 49.4091 460.428 50.4697 459.984 51.3636C459.541 52.2576 458.933 52.947 458.161 53.4318C457.388 53.9167 456.505 54.1591 455.513 54.1591C454.52 54.1591 453.638 53.9167 452.865 53.4318C452.092 52.947 451.484 52.2576 451.041 51.3636C450.598 50.4697 450.376 49.4091 450.376 48.1818C450.376 46.9545 450.598 45.8939 451.041 45C451.484 44.1061 452.092 43.4167 452.865 42.9318C453.638 42.447 454.52 42.2045 455.513 42.2045C456.505 42.2045 457.388 42.447 458.161 42.9318C458.933 43.4167 459.541 44.1061 459.984 45C460.428 45.8939 460.649 46.9545 460.649 48.1818ZM459.286 48.1818C459.286 47.1742 459.117 46.3239 458.78 45.6307C458.446 44.9375 457.994 44.4129 457.422 44.0568C456.854 43.7008 456.217 43.5227 455.513 43.5227C454.808 43.5227 454.17 43.7008 453.598 44.0568C453.03 44.4129 452.577 44.9375 452.24 45.6307C451.907 46.3239 451.74 47.1742 451.74 48.1818C451.74 49.1894 451.907 50.0398 452.24 50.733C452.577 51.4261 453.03 51.9508 453.598 52.3068C454.17 52.6629 454.808 52.8409 455.513 52.8409C456.217 52.8409 456.854 52.6629 457.422 52.3068C457.994 51.9508 458.446 51.4261 458.78 50.733C459.117 50.0398 459.286 49.1894 459.286 48.1818ZM471.109 54H467.518V42.3636H471.268C472.397 42.3636 473.363 42.5966 474.166 43.0625C474.969 43.5246 475.585 44.1894 476.013 45.0568C476.441 45.9205 476.655 46.9545 476.655 48.1591C476.655 49.3712 476.439 50.4148 476.007 51.2898C475.575 52.161 474.946 52.8314 474.121 53.3011C473.295 53.767 472.291 54 471.109 54ZM468.928 52.75H471.018C471.981 52.75 472.778 52.5644 473.411 52.1932C474.043 51.822 474.515 51.2936 474.825 50.608C475.136 49.9223 475.291 49.1061 475.291 48.1591C475.291 47.2197 475.138 46.411 474.831 45.733C474.524 45.0511 474.066 44.5284 473.456 44.1648C472.846 43.7973 472.087 43.6136 471.178 43.6136H468.928V52.75ZM479.018 54V42.3636H486.041V43.6136H480.428V47.5455H485.678V48.7955H480.428V52.75H486.132V54H479.018ZM496.672 54H493.081V42.3636H496.831C497.96 42.3636 498.926 42.5966 499.729 43.0625C500.532 43.5246 501.147 44.1894 501.575 45.0568C502.003 45.9205 502.217 46.9545 502.217 48.1591C502.217 49.3712 502.001 50.4148 501.57 51.2898C501.138 52.161 500.509 52.8314 499.683 53.3011C498.857 53.767 497.854 54 496.672 54ZM494.49 52.75H496.581C497.543 52.75 498.34 52.5644 498.973 52.1932C499.606 51.822 500.077 51.2936 500.388 50.608C500.698 49.9223 500.854 49.1061 500.854 48.1591C500.854 47.2197 500.7 46.411 500.393 45.733C500.087 45.0511 499.628 44.5284 499.018 44.1648C498.409 43.7973 497.649 43.6136 496.74 43.6136H494.49V52.75ZM504.581 54V42.3636H511.604V43.6136H505.99V47.5455H511.24V48.7955H505.99V52.75H511.695V54H504.581ZM520.507 45.2727C520.439 44.697 520.162 44.25 519.678 43.9318C519.193 43.6136 518.598 43.4545 517.893 43.4545C517.378 43.4545 516.928 43.5379 516.541 43.7045C516.159 43.8712 515.859 44.1004 515.643 44.392C515.431 44.6837 515.325 45.0152 515.325 45.3864C515.325 45.697 515.399 45.964 515.547 46.1875C515.698 46.4072 515.892 46.5909 516.126 46.7386C516.361 46.8826 516.607 47.0019 516.865 47.0966C517.123 47.1875 517.359 47.2614 517.575 47.3182L518.757 47.6364C519.06 47.7159 519.397 47.8258 519.768 47.9659C520.143 48.1061 520.501 48.2973 520.842 48.5398C521.187 48.7784 521.471 49.0852 521.695 49.4602C521.918 49.8352 522.03 50.2955 522.03 50.8409C522.03 51.4697 521.865 52.0379 521.536 52.5455C521.21 53.053 520.732 53.4564 520.104 53.7557C519.479 54.0549 518.719 54.2045 517.825 54.2045C516.992 54.2045 516.27 54.0701 515.661 53.8011C515.054 53.5322 514.577 53.1572 514.229 52.6761C513.884 52.1951 513.689 51.6364 513.643 51H515.098C515.136 51.4394 515.284 51.803 515.541 52.0909C515.803 52.375 516.132 52.5871 516.53 52.7273C516.931 52.8636 517.363 52.9318 517.825 52.9318C518.363 52.9318 518.846 52.8447 519.274 52.6705C519.702 52.4924 520.041 52.2462 520.291 51.9318C520.541 51.6136 520.666 51.2424 520.666 50.8182C520.666 50.4318 520.558 50.1174 520.342 49.875C520.126 49.6326 519.842 49.4356 519.49 49.2841C519.138 49.1326 518.757 49 518.348 48.8864L516.916 48.4773C516.007 48.2159 515.287 47.8428 514.757 47.358C514.227 46.8731 513.962 46.2386 513.962 45.4545C513.962 44.803 514.138 44.2348 514.49 43.75C514.846 43.2614 515.323 42.8826 515.922 42.6136C516.524 42.3409 517.196 42.2045 517.939 42.2045C518.689 42.2045 519.356 42.339 519.939 42.608C520.522 42.8731 520.984 43.2367 521.325 43.6989C521.67 44.161 521.852 44.6856 521.871 45.2727H520.507ZM524.347 54V42.3636H531.369V43.6136H525.756V47.5455H531.006V48.7955H525.756V52.75H531.46V54H524.347ZM533.909 42.3636H535.591L539.545 52.0227H539.682L543.636 42.3636H545.318V54H544V45.1591H543.886L540.25 54H538.977L535.341 45.1591H535.227V54H533.909V42.3636ZM548.143 54V42.3636H552.075C552.988 42.3636 553.734 42.5284 554.314 42.858C554.897 43.1837 555.329 43.625 555.609 44.1818C555.89 44.7386 556.03 45.3598 556.03 46.0455C556.03 46.7311 555.89 47.3542 555.609 47.9148C555.333 48.4754 554.905 48.9223 554.325 49.2557C553.746 49.5852 553.003 49.75 552.098 49.75H549.28V48.5H552.053C552.678 48.5 553.179 48.392 553.558 48.1761C553.937 47.9602 554.212 47.6686 554.382 47.3011C554.556 46.9299 554.643 46.5114 554.643 46.0455C554.643 45.5795 554.556 45.1629 554.382 44.7955C554.212 44.428 553.935 44.1402 553.553 43.9318C553.17 43.7197 552.662 43.6136 552.03 43.6136H549.553V54H548.143ZM558.3 54V42.3636H565.322V43.6136H559.709V47.5455H564.959V48.7955H559.709V52.75H565.413V54H558.3ZM577.089 42.3636V54H575.726L569.385 44.8636H569.271V54H567.862V42.3636H569.226L575.589 51.5227H575.703V42.3636H577.089ZM579.909 54V42.3636H581.318V47.5455H587.523V42.3636H588.932V54H587.523V48.7955H581.318V54H579.909ZM601.571 48.1818C601.571 49.4091 601.349 50.4697 600.906 51.3636C600.463 52.2576 599.855 52.947 599.082 53.4318C598.31 53.9167 597.427 54.1591 596.435 54.1591C595.442 54.1591 594.56 53.9167 593.787 53.4318C593.014 52.947 592.406 52.2576 591.963 51.3636C591.52 50.4697 591.298 49.4091 591.298 48.1818C591.298 46.9545 591.52 45.8939 591.963 45C592.406 44.1061 593.014 43.4167 593.787 42.9318C594.56 42.447 595.442 42.2045 596.435 42.2045C597.427 42.2045 598.31 42.447 599.082 42.9318C599.855 43.4167 600.463 44.1061 600.906 45C601.349 45.8939 601.571 46.9545 601.571 48.1818ZM600.207 48.1818C600.207 47.1742 600.039 46.3239 599.702 45.6307C599.368 44.9375 598.916 44.4129 598.344 44.0568C597.776 43.7008 597.139 43.5227 596.435 43.5227C595.73 43.5227 595.092 43.7008 594.52 44.0568C593.952 44.4129 593.499 44.9375 593.162 45.6307C592.829 46.3239 592.662 47.1742 592.662 48.1818C592.662 49.1894 592.829 50.0398 593.162 50.733C593.499 51.4261 593.952 51.9508 594.52 52.3068C595.092 52.6629 595.73 52.8409 596.435 52.8409C597.139 52.8409 597.776 52.6629 598.344 52.3068C598.916 51.9508 599.368 51.4261 599.702 50.733C600.039 50.0398 600.207 49.1894 600.207 48.1818ZM608.44 54V42.3636H615.463V43.6136H609.849V47.5455H615.099V48.7955H609.849V52.75H615.554V54H608.44ZM624.366 45.2727C624.298 44.697 624.022 44.25 623.537 43.9318C623.052 43.6136 622.457 43.4545 621.753 43.4545C621.238 43.4545 620.787 43.5379 620.401 43.7045C620.018 43.8712 619.719 44.1004 619.503 44.392C619.291 44.6837 619.185 45.0152 619.185 45.3864C619.185 45.697 619.259 45.964 619.406 46.1875C619.558 46.4072 619.751 46.5909 619.986 46.7386C620.221 46.8826 620.467 47.0019 620.724 47.0966C620.982 47.1875 621.219 47.2614 621.435 47.3182L622.616 47.6364C622.92 47.7159 623.257 47.8258 623.628 47.9659C624.003 48.1061 624.361 48.2973 624.702 48.5398C625.046 48.7784 625.33 49.0852 625.554 49.4602C625.777 49.8352 625.889 50.2955 625.889 50.8409C625.889 51.4697 625.724 52.0379 625.395 52.5455C625.069 53.053 624.592 53.4564 623.963 53.7557C623.338 54.0549 622.579 54.2045 621.685 54.2045C620.851 54.2045 620.13 54.0701 619.52 53.8011C618.914 53.5322 618.437 53.1572 618.088 52.6761C617.743 52.1951 617.548 51.6364 617.503 51H618.957C618.995 51.4394 619.143 51.803 619.401 52.0909C619.662 52.375 619.991 52.5871 620.389 52.7273C620.791 52.8636 621.223 52.9318 621.685 52.9318C622.223 52.9318 622.705 52.8447 623.134 52.6705C623.562 52.4924 623.901 52.2462 624.151 51.9318C624.401 51.6136 624.526 51.2424 624.526 50.8182C624.526 50.4318 624.418 50.1174 624.202 49.875C623.986 49.6326 623.702 49.4356 623.349 49.2841C622.997 49.1326 622.616 49 622.207 48.8864L620.776 48.4773C619.866 48.2159 619.147 47.8428 618.616 47.358C618.086 46.8731 617.821 46.2386 617.821 45.4545C617.821 44.803 617.997 44.2348 618.349 43.75C618.705 43.2614 619.183 42.8826 619.781 42.6136C620.384 42.3409 621.056 42.2045 621.798 42.2045C622.548 42.2045 623.215 42.339 623.798 42.608C624.382 42.8731 624.844 43.2367 625.185 43.6989C625.529 44.161 625.711 44.6856 625.73 45.2727H624.366ZM637.57 46H636.161C636.077 45.5947 635.931 45.2386 635.723 44.9318C635.518 44.625 635.268 44.3674 634.973 44.1591C634.681 43.947 634.357 43.7879 634.001 43.6818C633.645 43.5758 633.274 43.5227 632.888 43.5227C632.183 43.5227 631.545 43.7008 630.973 44.0568C630.405 44.4129 629.952 44.9375 629.615 45.6307C629.282 46.3239 629.115 47.1742 629.115 48.1818C629.115 49.1894 629.282 50.0398 629.615 50.733C629.952 51.4261 630.405 51.9508 630.973 52.3068C631.545 52.6629 632.183 52.8409 632.888 52.8409C633.274 52.8409 633.645 52.7879 634.001 52.6818C634.357 52.5758 634.681 52.4186 634.973 52.2102C635.268 51.9981 635.518 51.7386 635.723 51.4318C635.931 51.1212 636.077 50.7652 636.161 50.3636H637.57C637.464 50.9583 637.27 51.4905 636.99 51.9602C636.71 52.4299 636.361 52.8295 635.945 53.1591C635.528 53.4848 635.06 53.733 634.541 53.9034C634.026 54.0739 633.475 54.1591 632.888 54.1591C631.895 54.1591 631.013 53.9167 630.24 53.4318C629.467 52.947 628.859 52.2576 628.416 51.3636C627.973 50.4697 627.751 49.4091 627.751 48.1818C627.751 46.9545 627.973 45.8939 628.416 45C628.859 44.1061 629.467 43.4167 630.24 42.9318C631.013 42.447 631.895 42.2045 632.888 42.2045C633.475 42.2045 634.026 42.2898 634.541 42.4602C635.06 42.6307 635.528 42.8807 635.945 43.2102C636.361 43.536 636.71 43.9337 636.99 44.4034C637.27 44.8693 637.464 45.4015 637.57 46ZM649.665 48.1818C649.665 49.4091 649.443 50.4697 649 51.3636C648.557 52.2576 647.949 52.947 647.176 53.4318C646.403 53.9167 645.521 54.1591 644.528 54.1591C643.536 54.1591 642.653 53.9167 641.881 53.4318C641.108 52.947 640.5 52.2576 640.057 51.3636C639.614 50.4697 639.392 49.4091 639.392 48.1818C639.392 46.9545 639.614 45.8939 640.057 45C640.5 44.1061 641.108 43.4167 641.881 42.9318C642.653 42.447 643.536 42.2045 644.528 42.2045C645.521 42.2045 646.403 42.447 647.176 42.9318C647.949 43.4167 648.557 44.1061 649 45C649.443 45.8939 649.665 46.9545 649.665 48.1818ZM648.301 48.1818C648.301 47.1742 648.133 46.3239 647.795 45.6307C647.462 44.9375 647.009 44.4129 646.438 44.0568C645.869 43.7008 645.233 43.5227 644.528 43.5227C643.824 43.5227 643.186 43.7008 642.614 44.0568C642.045 44.4129 641.593 44.9375 641.256 45.6307C640.922 46.3239 640.756 47.1742 640.756 48.1818C640.756 49.1894 640.922 50.0398 641.256 50.733C641.593 51.4261 642.045 51.9508 642.614 52.3068C643.186 52.6629 643.824 52.8409 644.528 52.8409C645.233 52.8409 645.869 52.6629 646.438 52.3068C647.009 51.9508 647.462 51.4261 647.795 50.733C648.133 50.0398 648.301 49.1894 648.301 48.1818ZM652.034 54V42.3636H653.443V52.75H658.852V54H652.034ZM662.246 54H660.768L665.041 42.3636H666.496L670.768 54H669.291L665.814 44.2045H665.723L662.246 54ZM662.791 49.4545H668.746V50.7045H662.791V49.4545ZM672.581 54V42.3636H676.513C677.422 42.3636 678.168 42.5189 678.751 42.8295C679.335 43.1364 679.767 43.5587 680.047 44.0966C680.327 44.6345 680.467 45.2462 680.467 45.9318C680.467 46.6174 680.327 47.2254 680.047 47.7557C679.767 48.286 679.337 48.7027 678.757 49.0057C678.178 49.3049 677.437 49.4545 676.536 49.4545H673.354V48.1818H676.49C677.111 48.1818 677.611 48.0909 677.99 47.9091C678.373 47.7273 678.649 47.4697 678.82 47.1364C678.994 46.7992 679.081 46.3977 679.081 45.9318C679.081 45.4659 678.994 45.0587 678.82 44.7102C678.645 44.3617 678.367 44.0928 677.984 43.9034C677.602 43.7102 677.096 43.6136 676.467 43.6136H673.99V54H672.581ZM678.058 48.7727L680.922 54H679.286L676.467 48.7727H678.058ZM687.315 54V42.3636H694.338V43.6136H688.724V47.5455H693.974V48.7955H688.724V52.75H694.429V54H687.315ZM710.741 46H709.332C709.249 45.5947 709.103 45.2386 708.895 44.9318C708.69 44.625 708.44 44.3674 708.145 44.1591C707.853 43.947 707.529 43.7879 707.173 43.6818C706.817 43.5758 706.446 43.5227 706.06 43.5227C705.355 43.5227 704.717 43.7008 704.145 44.0568C703.577 44.4129 703.124 44.9375 702.787 45.6307C702.454 46.3239 702.287 47.1742 702.287 48.1818C702.287 49.1894 702.454 50.0398 702.787 50.733C703.124 51.4261 703.577 51.9508 704.145 52.3068C704.717 52.6629 705.355 52.8409 706.06 52.8409C706.446 52.8409 706.817 52.7879 707.173 52.6818C707.529 52.5758 707.853 52.4186 708.145 52.2102C708.44 51.9981 708.69 51.7386 708.895 51.4318C709.103 51.1212 709.249 50.7652 709.332 50.3636H710.741C710.635 50.9583 710.442 51.4905 710.162 51.9602C709.882 52.4299 709.533 52.8295 709.116 53.1591C708.7 53.4848 708.232 53.733 707.713 53.9034C707.198 54.0739 706.647 54.1591 706.06 54.1591C705.067 54.1591 704.185 53.9167 703.412 53.4318C702.639 52.947 702.031 52.2576 701.588 51.3636C701.145 50.4697 700.923 49.4091 700.923 48.1818C700.923 46.9545 701.145 45.8939 701.588 45C702.031 44.1061 702.639 43.4167 703.412 42.9318C704.185 42.447 705.067 42.2045 706.06 42.2045C706.647 42.2045 707.198 42.2898 707.713 42.4602C708.232 42.6307 708.7 42.8807 709.116 43.2102C709.533 43.536 709.882 43.9337 710.162 44.4034C710.442 44.8693 710.635 45.4015 710.741 46ZM722.837 48.1818C722.837 49.4091 722.615 50.4697 722.172 51.3636C721.729 52.2576 721.121 52.947 720.348 53.4318C719.575 53.9167 718.693 54.1591 717.7 54.1591C716.708 54.1591 715.825 53.9167 715.053 53.4318C714.28 52.947 713.672 52.2576 713.229 51.3636C712.786 50.4697 712.564 49.4091 712.564 48.1818C712.564 46.9545 712.786 45.8939 713.229 45C713.672 44.1061 714.28 43.4167 715.053 42.9318C715.825 42.447 716.708 42.2045 717.7 42.2045C718.693 42.2045 719.575 42.447 720.348 42.9318C721.121 43.4167 721.729 44.1061 722.172 45C722.615 45.8939 722.837 46.9545 722.837 48.1818ZM721.473 48.1818C721.473 47.1742 721.304 46.3239 720.967 45.6307C720.634 44.9375 720.181 44.4129 719.609 44.0568C719.041 43.7008 718.405 43.5227 717.7 43.5227C716.996 43.5227 716.357 43.7008 715.786 44.0568C715.217 44.4129 714.765 44.9375 714.428 45.6307C714.094 46.3239 713.928 47.1742 713.928 48.1818C713.928 49.1894 714.094 50.0398 714.428 50.733C714.765 51.4261 715.217 51.9508 715.786 52.3068C716.357 52.6629 716.996 52.8409 717.7 52.8409C718.405 52.8409 719.041 52.6629 719.609 52.3068C720.181 51.9508 720.634 51.4261 720.967 50.733C721.304 50.0398 721.473 49.1894 721.473 48.1818ZM734.433 42.3636V54H733.07L726.729 44.8636H726.615V54H725.206V42.3636H726.57L732.933 51.5227H733.047V42.3636H734.433ZM743.616 45.2727C743.548 44.697 743.272 44.25 742.787 43.9318C742.302 43.6136 741.707 43.4545 741.003 43.4545C740.488 43.4545 740.037 43.5379 739.651 43.7045C739.268 43.8712 738.969 44.1004 738.753 44.392C738.541 44.6837 738.435 45.0152 738.435 45.3864C738.435 45.697 738.509 45.964 738.656 46.1875C738.808 46.4072 739.001 46.5909 739.236 46.7386C739.471 46.8826 739.717 47.0019 739.974 47.0966C740.232 47.1875 740.469 47.2614 740.685 47.3182L741.866 47.6364C742.17 47.7159 742.507 47.8258 742.878 47.9659C743.253 48.1061 743.611 48.2973 743.952 48.5398C744.296 48.7784 744.58 49.0852 744.804 49.4602C745.027 49.8352 745.139 50.2955 745.139 50.8409C745.139 51.4697 744.974 52.0379 744.645 52.5455C744.319 53.053 743.842 53.4564 743.213 53.7557C742.588 54.0549 741.829 54.2045 740.935 54.2045C740.101 54.2045 739.38 54.0701 738.77 53.8011C738.164 53.5322 737.687 53.1572 737.338 52.6761C736.993 52.1951 736.798 51.6364 736.753 51H738.207C738.245 51.4394 738.393 51.803 738.651 52.0909C738.912 52.375 739.241 52.5871 739.639 52.7273C740.041 52.8636 740.473 52.9318 740.935 52.9318C741.473 52.9318 741.955 52.8447 742.384 52.6705C742.812 52.4924 743.151 52.2462 743.401 51.9318C743.651 51.6136 743.776 51.2424 743.776 50.8182C743.776 50.4318 743.668 50.1174 743.452 49.875C743.236 49.6326 742.952 49.4356 742.599 49.2841C742.247 49.1326 741.866 49 741.457 48.8864L740.026 48.4773C739.116 48.2159 738.397 47.8428 737.866 47.358C737.336 46.8731 737.071 46.2386 737.071 45.4545C737.071 44.803 737.247 44.2348 737.599 43.75C737.955 43.2614 738.433 42.8826 739.031 42.6136C739.634 42.3409 740.306 42.2045 741.048 42.2045C741.798 42.2045 742.465 42.339 743.048 42.608C743.632 42.8731 744.094 43.2367 744.435 43.6989C744.779 44.161 744.961 44.6856 744.98 45.2727H743.616ZM755.092 42.3636H756.501V50.0682C756.501 50.8636 756.314 51.5739 755.939 52.1989C755.568 52.8201 755.043 53.3106 754.365 53.6705C753.687 54.0265 752.892 54.2045 751.979 54.2045C751.066 54.2045 750.27 54.0265 749.592 53.6705C748.914 53.3106 748.388 52.8201 748.013 52.1989C747.642 51.5739 747.456 50.8636 747.456 50.0682V42.3636H748.865V49.9545C748.865 50.5227 748.99 51.0284 749.24 51.4716C749.49 51.911 749.846 52.2576 750.308 52.5114C750.774 52.7614 751.331 52.8864 751.979 52.8864C752.626 52.8864 753.183 52.7614 753.649 52.5114C754.115 52.2576 754.471 51.911 754.717 51.4716C754.967 51.0284 755.092 50.5227 755.092 49.9545V42.3636ZM759.315 42.3636H760.997L764.952 52.0227H765.088L769.043 42.3636H770.724V54H769.406V45.1591H769.293L765.656 54H764.384L760.747 45.1591H760.634V54H759.315V42.3636ZM783.368 48.1818C783.368 49.4091 783.146 50.4697 782.703 51.3636C782.26 52.2576 781.652 52.947 780.879 53.4318C780.107 53.9167 779.224 54.1591 778.232 54.1591C777.239 54.1591 776.357 53.9167 775.584 53.4318C774.811 52.947 774.203 52.2576 773.76 51.3636C773.317 50.4697 773.095 49.4091 773.095 48.1818C773.095 46.9545 773.317 45.8939 773.76 45C774.203 44.1061 774.811 43.4167 775.584 42.9318C776.357 42.447 777.239 42.2045 778.232 42.2045C779.224 42.2045 780.107 42.447 780.879 42.9318C781.652 43.4167 782.26 44.1061 782.703 45C783.146 45.8939 783.368 46.9545 783.368 48.1818ZM782.004 48.1818C782.004 47.1742 781.836 46.3239 781.499 45.6307C781.165 44.9375 780.713 44.4129 780.141 44.0568C779.572 43.7008 778.936 43.5227 778.232 43.5227C777.527 43.5227 776.889 43.7008 776.317 44.0568C775.749 44.4129 775.296 44.9375 774.959 45.6307C774.625 46.3239 774.459 47.1742 774.459 48.1818C774.459 49.1894 774.625 50.0398 774.959 50.733C775.296 51.4261 775.749 51.9508 776.317 52.3068C776.889 52.6629 777.527 52.8409 778.232 52.8409C778.936 52.8409 779.572 52.6629 780.141 52.3068C780.713 51.9508 781.165 51.4261 781.499 50.733C781.836 50.0398 782.004 49.1894 782.004 48.1818ZM793.828 54H790.237V42.3636H793.987C795.116 42.3636 796.082 42.5966 796.885 43.0625C797.688 43.5246 798.304 44.1894 798.732 45.0568C799.16 45.9205 799.374 46.9545 799.374 48.1591C799.374 49.3712 799.158 50.4148 798.726 51.2898C798.294 52.161 797.665 52.8314 796.839 53.3011C796.014 53.767 795.01 54 793.828 54ZM791.646 52.75H793.737C794.699 52.75 795.497 52.5644 796.129 52.1932C796.762 51.822 797.233 51.2936 797.544 50.608C797.855 49.9223 798.01 49.1061 798.01 48.1591C798.01 47.2197 797.857 46.411 797.55 45.733C797.243 45.0511 796.785 44.5284 796.175 44.1648C795.565 43.7973 794.805 43.6136 793.896 43.6136H791.646V52.75ZM801.737 54V42.3636H808.76V43.6136H803.146V47.5455H808.396V48.7955H803.146V52.75H808.851V54H801.737ZM816.277 54H814.8L819.072 42.3636H820.527L824.8 54H823.322L819.845 44.2045H819.754L816.277 54ZM816.822 49.4545H822.777V50.7045H816.822V49.4545ZM819.186 41.1818L820.572 38.5455H822.141L820.368 41.1818H819.186ZM826.612 54V42.3636H828.021V52.75H833.43V54H826.612ZM844.523 46H843.114C843.03 45.5947 842.884 45.2386 842.676 44.9318C842.472 44.625 842.222 44.3674 841.926 44.1591C841.634 43.947 841.311 43.7879 840.955 43.6818C840.598 43.5758 840.227 43.5227 839.841 43.5227C839.136 43.5227 838.498 43.7008 837.926 44.0568C837.358 44.4129 836.905 44.9375 836.568 45.6307C836.235 46.3239 836.068 47.1742 836.068 48.1818C836.068 49.1894 836.235 50.0398 836.568 50.733C836.905 51.4261 837.358 51.9508 837.926 52.3068C838.498 52.6629 839.136 52.8409 839.841 52.8409C840.227 52.8409 840.598 52.7879 840.955 52.6818C841.311 52.5758 841.634 52.4186 841.926 52.2102C842.222 51.9981 842.472 51.7386 842.676 51.4318C842.884 51.1212 843.03 50.7652 843.114 50.3636H844.523C844.417 50.9583 844.223 51.4905 843.943 51.9602C843.663 52.4299 843.314 52.8295 842.898 53.1591C842.481 53.4848 842.013 53.733 841.494 53.9034C840.979 54.0739 840.428 54.1591 839.841 54.1591C838.848 54.1591 837.966 53.9167 837.193 53.4318C836.42 52.947 835.813 52.2576 835.369 51.3636C834.926 50.4697 834.705 49.4091 834.705 48.1818C834.705 46.9545 834.926 45.8939 835.369 45C835.813 44.1061 836.42 43.4167 837.193 42.9318C837.966 42.447 838.848 42.2045 839.841 42.2045C840.428 42.2045 840.979 42.2898 841.494 42.4602C842.013 42.6307 842.481 42.8807 842.898 43.2102C843.314 43.536 843.663 43.9337 843.943 44.4034C844.223 44.8693 844.417 45.4015 844.523 46ZM856.618 48.1818C856.618 49.4091 856.396 50.4697 855.953 51.3636C855.51 52.2576 854.902 52.947 854.129 53.4318C853.357 53.9167 852.474 54.1591 851.482 54.1591C850.489 54.1591 849.607 53.9167 848.834 53.4318C848.061 52.947 847.453 52.2576 847.01 51.3636C846.567 50.4697 846.345 49.4091 846.345 48.1818C846.345 46.9545 846.567 45.8939 847.01 45C847.453 44.1061 848.061 43.4167 848.834 42.9318C849.607 42.447 850.489 42.2045 851.482 42.2045C852.474 42.2045 853.357 42.447 854.129 42.9318C854.902 43.4167 855.51 44.1061 855.953 45C856.396 45.8939 856.618 46.9545 856.618 48.1818ZM855.254 48.1818C855.254 47.1742 855.086 46.3239 854.749 45.6307C854.415 44.9375 853.963 44.4129 853.391 44.0568C852.822 43.7008 852.186 43.5227 851.482 43.5227C850.777 43.5227 850.139 43.7008 849.567 44.0568C848.999 44.4129 848.546 44.9375 848.209 45.6307C847.875 46.3239 847.709 47.1742 847.709 48.1818C847.709 49.1894 847.875 50.0398 848.209 50.733C848.546 51.4261 848.999 51.9508 849.567 52.3068C850.139 52.6629 850.777 52.8409 851.482 52.8409C852.186 52.8409 852.822 52.6629 853.391 52.3068C853.963 51.9508 854.415 51.4261 854.749 50.733C855.086 50.0398 855.254 49.1894 855.254 48.1818ZM868.805 48.1818C868.805 49.4091 868.584 50.4697 868.141 51.3636C867.697 52.2576 867.089 52.947 866.317 53.4318C865.544 53.9167 864.661 54.1591 863.669 54.1591C862.677 54.1591 861.794 53.9167 861.021 53.4318C860.249 52.947 859.641 52.2576 859.197 51.3636C858.754 50.4697 858.533 49.4091 858.533 48.1818C858.533 46.9545 858.754 45.8939 859.197 45C859.641 44.1061 860.249 43.4167 861.021 42.9318C861.794 42.447 862.677 42.2045 863.669 42.2045C864.661 42.2045 865.544 42.447 866.317 42.9318C867.089 43.4167 867.697 44.1061 868.141 45C868.584 45.8939 868.805 46.9545 868.805 48.1818ZM867.442 48.1818C867.442 47.1742 867.273 46.3239 866.936 45.6307C866.603 44.9375 866.15 44.4129 865.578 44.0568C865.01 43.7008 864.374 43.5227 863.669 43.5227C862.964 43.5227 862.326 43.7008 861.754 44.0568C861.186 44.4129 860.733 44.9375 860.396 45.6307C860.063 46.3239 859.896 47.1742 859.896 48.1818C859.896 49.1894 860.063 50.0398 860.396 50.733C860.733 51.4261 861.186 51.9508 861.754 52.3068C862.326 52.6629 862.964 52.8409 863.669 52.8409C864.374 52.8409 865.01 52.6629 865.578 52.3068C866.15 51.9508 866.603 51.4261 866.936 50.733C867.273 50.0398 867.442 49.1894 867.442 48.1818ZM871.175 54V42.3636H872.584V52.75H877.993V54H871.175Z" fill="white"/>
<rect width="50" height="50" transform="translate(1191 629)" fill="#101010" fill-opacity="0.5"/>
<path d="M1235.24 640.018L1216.49 633.768C1216.17 633.661 1215.83 633.661 1215.51 633.768L1196.76 640.018C1196.44 640.121 1196.17 640.32 1195.98 640.586C1195.79 640.852 1195.69 641.172 1195.69 641.5V657.125C1195.69 657.539 1195.85 657.937 1196.15 658.23C1196.44 658.523 1196.84 658.687 1197.25 658.687C1197.66 658.687 1198.06 658.523 1198.35 658.23C1198.65 657.937 1198.81 657.539 1198.81 657.125V643.668L1205.37 645.854C1203.63 648.67 1203.08 652.062 1203.83 655.287C1204.59 658.511 1206.59 661.303 1209.41 663.051C1205.89 664.43 1202.85 666.924 1200.63 670.334C1200.51 670.506 1200.43 670.699 1200.39 670.902C1200.35 671.105 1200.35 671.314 1200.39 671.517C1200.44 671.72 1200.52 671.913 1200.63 672.084C1200.75 672.255 1200.9 672.402 1201.07 672.515C1201.25 672.628 1201.44 672.706 1201.64 672.743C1201.85 672.78 1202.06 672.777 1202.26 672.733C1202.46 672.689 1202.65 672.605 1202.82 672.486C1202.99 672.367 1203.14 672.216 1203.25 672.041C1206.19 667.525 1210.84 664.937 1216 664.937C1221.16 664.937 1225.81 667.525 1228.75 672.041C1228.98 672.382 1229.34 672.618 1229.74 672.7C1230.14 672.782 1230.56 672.702 1230.9 672.477C1231.25 672.253 1231.49 671.903 1231.58 671.502C1231.66 671.1 1231.59 670.681 1231.37 670.334C1229.15 666.924 1226.1 664.43 1222.59 663.051C1225.4 661.303 1227.41 658.513 1228.16 655.291C1228.92 652.069 1228.37 648.678 1226.63 645.863L1235.24 642.992C1235.56 642.889 1235.83 642.69 1236.02 642.424C1236.21 642.157 1236.31 641.838 1236.31 641.51C1236.31 641.182 1236.21 640.862 1236.02 640.596C1235.83 640.33 1235.56 640.131 1235.24 640.027V640.018ZM1225.38 652.437C1225.38 653.92 1225.02 655.381 1224.35 656.701C1223.68 658.021 1222.7 659.163 1221.5 660.032C1220.3 660.902 1218.91 661.474 1217.45 661.703C1215.98 661.932 1214.48 661.81 1213.08 661.347C1211.67 660.885 1210.39 660.095 1209.34 659.043C1208.3 657.991 1207.52 656.706 1207.07 655.295C1206.62 653.883 1206.51 652.384 1206.75 650.922C1206.99 649.459 1207.57 648.074 1208.45 646.881L1215.51 649.225C1215.83 649.332 1216.17 649.332 1216.49 649.225L1223.55 646.881C1224.74 648.49 1225.38 650.438 1225.38 652.437ZM1216 646.104L1202.19 641.5L1216 636.896L1229.81 641.5L1216 646.104Z" fill="white"/>
<defs>
<filter id="filter0_d_3_3" x="39" y="35" width="1205" height="659" filterUnits="userSpaceOnUse" color-interpolation-filters="sRGB">
<feFlood flood-opacity="0" result="BackgroundImageFix"/>
<feColorMatrix in="SourceAlpha" type="matrix" values="0 0 0 0 0 0 0 0 0 0 0 0 0 0 0 0 0 0 127 0" result="hardAlpha"/>
<feOffset dx="8" dy="8"/>
<feGaussianBlur stdDeviation="10"/>
<feComposite in2="hardAlpha" operator="out"/>
<feColorMatrix type="matrix" values="0 0 0 0 0.0641666 0 0 0 0 0.0636853 0 0 0 0 0.0636853 0 0 0 1 0"/>
<feBlend mode="normal" in2="BackgroundImageFix" result="effect1_dropShadow_3_3"/>
<feBlend mode="normal" in="SourceGraphic" in2="effect1_dropShadow_3_3" result="shape"/>
</filter>
<filter id="filter1_d_3_3" x="15" y="193" width="98" height="273" filterUnits="userSpaceOnUse" color-interpolation-filters="sRGB">
<feFlood flood-opacity="0" result="BackgroundImageFix"/>
<feColorMatrix in="SourceAlpha" type="matrix" values="0 0 0 0 0 0 0 0 0 0 0 0 0 0 0 0 0 0 127 0" result="hardAlpha"/>
<feOffset dx="8" dy="8"/>
<feGaussianBlur stdDeviation="10"/>
<feComposite in2="hardAlpha" operator="out"/>
<feColorMatrix type="matrix" values="0 0 0 0 0.0641666 0 0 0 0 0.0636853 0 0 0 0 0.0636853 0 0 0 1 0"/>
<feBlend mode="normal" in2="BackgroundImageFix" result="effect1_dropShadow_3_3"/>
<feBlend mode="normal" in="SourceGraphic" in2="effect1_dropShadow_3_3" result="shape"/>
</filter>
<filter id="filter2_d_3_3" x="340" y="4" width="595" height="103" filterUnits="userSpaceOnUse" color-interpolation-filters="sRGB">
<feFlood flood-opacity="0" result="BackgroundImageFix"/>
<feColorMatrix in="SourceAlpha" type="matrix" values="0 0 0 0 0 0 0 0 0 0 0 0 0 0 0 0 0 0 127 0" result="hardAlpha"/>
<feOffset dx="8" dy="8"/>
<feGaussianBlur stdDeviation="10"/>
<feComposite in2="hardAlpha" operator="out"/>
<feColorMatrix type="matrix" values="0 0 0 0 0.0641666 0 0 0 0 0.0636853 0 0 0 0 0.0636853 0 0 0 1 0"/>
<feBlend mode="normal" in2="BackgroundImageFix" result="effect1_dropShadow_3_3"/>
<feBlend mode="normal" in="SourceGraphic" in2="effect1_dropShadow_3_3" result="shape"/>
</filter>
<filter id="filter3_d_3_3" x="15" y="579" width="90" height="90" filterUnits="userSpaceOnUse" color-interpolation-filters="sRGB">
<feFlood flood-opacity="0" result="BackgroundImageFix"/>
<feColorMatrix in="SourceAlpha" type="matrix" values="0 0 0 0 0 0 0 0 0 0 0 0 0 0 0 0 0 0 127 0" result="hardAlpha"/>
<feOffset dx="8" dy="8"/>
<feGaussianBlur stdDeviation="10"/>
<feComposite in2="hardAlpha" operator="out"/>
<feColorMatrix type="matrix" values="0 0 0 0 0.0641666 0 0 0 0 0.0636853 0 0 0 0 0.0636853 0 0 0 1 0"/>
<feBlend mode="normal" in2="BackgroundImageFix" result="effect1_dropShadow_3_3"/>
<feBlend mode="normal" in="SourceGraphic" in2="effect1_dropShadow_3_3" result="shape"/>
</filter>
<filter id="filter4_d_3_3" x="101" y="587" width="261" height="100" filterUnits="userSpaceOnUse" color-interpolation-filters="sRGB">
<feFlood flood-opacity="0" result="BackgroundImageFix"/>
<feColorMatrix in="SourceAlpha" type="matrix" values="0 0 0 0 0 0 0 0 0 0 0 0 0 0 0 0 0 0 127 0" result="hardAlpha"/>
<feOffset dx="8" dy="8"/>
<feGaussianBlur stdDeviation="10"/>
<feComposite in2="hardAlpha" operator="out"/>
<feColorMatrix type="matrix" values="0 0 0 0 0 0 0 0 0 0 0 0 0 0 0 0 0 0 0.25 0"/>
<feBlend mode="normal" in2="BackgroundImageFix" result="effect1_dropShadow_3_3"/>
<feBlend mode="normal" in="SourceGraphic" in2="effect1_dropShadow_3_3" result="shape"/>
</filter>
<filter id="filter5_d_3_3" x="101" y="519" width="261" height="100" filterUnits="userSpaceOnUse" color-interpolation-filters="sRGB">
<feFlood flood-opacity="0" result="BackgroundImageFix"/>
<feColorMatrix in="SourceAlpha" type="matrix" values="0 0 0 0 0 0 0 0 0 0 0 0 0 0 0 0 0 0 127 0" result="hardAlpha"/>
<feOffset dx="8" dy="8"/>
<feGaussianBlur stdDeviation="10"/>
<feComposite in2="hardAlpha" operator="out"/>
<feColorMatrix type="matrix" values="0 0 0 0 0 0 0 0 0 0 0 0 0 0 0 0 0 0 0.25 0"/>
<feBlend mode="normal" in2="BackgroundImageFix" result="effect1_dropShadow_3_3"/>
<feBlend mode="normal" in="SourceGraphic" in2="effect1_dropShadow_3_3" result="shape"/>
</filter>
<filter id="filter6_d_3_3" x="101" y="447" width="261" height="100" filterUnits="userSpaceOnUse" color-interpolation-filters="sRGB">
<feFlood flood-opacity="0" result="BackgroundImageFix"/>
<feColorMatrix in="SourceAlpha" type="matrix" values="0 0 0 0 0 0 0 0 0 0 0 0 0 0 0 0 0 0 127 0" result="hardAlpha"/>
<feOffset dx="8" dy="8"/>
<feGaussianBlur stdDeviation="10"/>
<feComposite in2="hardAlpha" operator="out"/>
<feColorMatrix type="matrix" values="0 0 0 0 0 0 0 0 0 0 0 0 0 0 0 0 0 0 0.25 0"/>
<feBlend mode="normal" in2="BackgroundImageFix" result="effect1_dropShadow_3_3"/>
<feBlend mode="normal" in="SourceGraphic" in2="effect1_dropShadow_3_3" result="shape"/>
</filter>
<filter id="filter7_d_3_3" x="101" y="371" width="261" height="100" filterUnits="userSpaceOnUse" color-interpolation-filters="sRGB">
<feFlood flood-opacity="0" result="BackgroundImageFix"/>
<feColorMatrix in="SourceAlpha" type="matrix" values="0 0 0 0 0 0 0 0 0 0 0 0 0 0 0 0 0 0 127 0" result="hardAlpha"/>
<feOffset dx="8" dy="8"/>
<feGaussianBlur stdDeviation="10"/>
<feComposite in2="hardAlpha" operator="out"/>
<feColorMatrix type="matrix" values="0 0 0 0 0 0 0 0 0 0 0 0 0 0 0 0 0 0 0.25 0"/>
<feBlend mode="normal" in2="BackgroundImageFix" result="effect1_dropShadow_3_3"/>
<feBlend mode="normal" in="SourceGraphic" in2="effect1_dropShadow_3_3" result="shape"/>
</filter>
<filter id="filter8_d_3_3" x="101" y="208" width="261" height="185" filterUnits="userSpaceOnUse" color-interpolation-filters="sRGB">
<feFlood flood-opacity="0" result="BackgroundImageFix"/>
<feColorMatrix in="SourceAlpha" type="matrix" values="0 0 0 0 0 0 0 0 0 0 0 0 0 0 0 0 0 0 127 0" result="hardAlpha"/>
<feOffset dx="8" dy="8"/>
<feGaussianBlur stdDeviation="10"/>
<feComposite in2="hardAlpha" operator="out"/>
<feColorMatrix type="matrix" values="0 0 0 0 0 0 0 0 0 0 0 0 0 0 0 0 0 0 0.25 0"/>
<feBlend mode="normal" in2="BackgroundImageFix" result="effect1_dropShadow_3_3"/>
<feBlend mode="normal" in="SourceGraphic" in2="effect1_dropShadow_3_3" result="shape"/>
</filter>
<filter id="filter9_d_3_3" x="101" y="48" width="261" height="185" filterUnits="userSpaceOnUse" color-interpolation-filters="sRGB">
<feFlood flood-opacity="0" result="BackgroundImageFix"/>
<feColorMatrix in="SourceAlpha" type="matrix" values="0 0 0 0 0 0 0 0 0 0 0 0 0 0 0 0 0 0 127 0" result="hardAlpha"/>
<feOffset dx="8" dy="8"/>
<feGaussianBlur stdDeviation="10"/>
<feComposite in2="hardAlpha" operator="out"/>
<feColorMatrix type="matrix" values="0 0 0 0 0 0 0 0 0 0 0 0 0 0 0 0 0 0 0.25 0"/>
<feBlend mode="normal" in2="BackgroundImageFix" result="effect1_dropShadow_3_3"/>
<feBlend mode="normal" in="SourceGraphic" in2="effect1_dropShadow_3_3" result="shape"/>
</filter>
<filter id="filter10_d_3_3" x="340" y="98" width="595" height="157" filterUnits="userSpaceOnUse" color-interpolation-filters="sRGB">
<feFlood flood-opacity="0" result="BackgroundImageFix"/>
<feColorMatrix in="SourceAlpha" type="matrix" values="0 0 0 0 0 0 0 0 0 0 0 0 0 0 0 0 0 0 127 0" result="hardAlpha"/>
<feOffset dx="8" dy="8"/>
<feGaussianBlur stdDeviation="10"/>
<feComposite in2="hardAlpha" operator="out"/>
<feColorMatrix type="matrix" values="0 0 0 0 0 0 0 0 0 0 0 0 0 0 0 0 0 0 0.25 0"/>
<feBlend mode="normal" in2="BackgroundImageFix" result="effect1_dropShadow_3_3"/>
<feBlend mode="normal" in="SourceGraphic" in2="effect1_dropShadow_3_3" result="shape"/>
</filter>
<filter id="filter11_d_3_3" x="340" y="235" width="595" height="177" filterUnits="userSpaceOnUse" color-interpolation-filters="sRGB">
<feFlood flood-opacity="0" result="BackgroundImageFix"/>
<feColorMatrix in="SourceAlpha" type="matrix" values="0 0 0 0 0 0 0 0 0 0 0 0 0 0 0 0 0 0 127 0" result="hardAlpha"/>
<feOffset dx="8" dy="8"/>
<feGaussianBlur stdDeviation="10"/>
<feComposite in2="hardAlpha" operator="out"/>
<feColorMatrix type="matrix" values="0 0 0 0 0 0 0 0 0 0 0 0 0 0 0 0 0 0 0.25 0"/>
<feBlend mode="normal" in2="BackgroundImageFix" result="effect1_dropShadow_3_3"/>
<feBlend mode="normal" in="SourceGraphic" in2="effect1_dropShadow_3_3" result="shape"/>
</filter>
<filter id="filter12_d_3_3" x="340" y="382" width="595" height="166" filterUnits="userSpaceOnUse" color-interpolation-filters="sRGB">
<feFlood flood-opacity="0" result="BackgroundImageFix"/>
<feColorMatrix in="SourceAlpha" type="matrix" values="0 0 0 0 0 0 0 0 0 0 0 0 0 0 0 0 0 0 127 0" result="hardAlpha"/>
<feOffset dx="8" dy="8"/>
<feGaussianBlur stdDeviation="10"/>
<feComposite in2="hardAlpha" operator="out"/>
<feColorMatrix type="matrix" values="0 0 0 0 0 0 0 0 0 0 0 0 0 0 0 0 0 0 0.25 0"/>
<feBlend mode="normal" in2="BackgroundImageFix" result="effect1_dropShadow_3_3"/>
<feBlend mode="normal" in="SourceGraphic" in2="effect1_dropShadow_3_3" result="shape"/>
</filter>
<filter id="filter13_d_3_3" x="340" y="517" width="595" height="170" filterUnits="userSpaceOnUse" color-interpolation-filters="sRGB">
<feFlood flood-opacity="0" result="BackgroundImageFix"/>
<feColorMatrix in="SourceAlpha" type="matrix" values="0 0 0 0 0 0 0 0 0 0 0 0 0 0 0 0 0 0 127 0" result="hardAlpha"/>
<feOffset dx="8" dy="8"/>
<feGaussianBlur stdDeviation="10"/>
<feComposite in2="hardAlpha" operator="out"/>
<feColorMatrix type="matrix" values="0 0 0 0 0 0 0 0 0 0 0 0 0 0 0 0 0 0 0.25 0"/>
<feBlend mode="normal" in2="BackgroundImageFix" result="effect1_dropShadow_3_3"/>
<feBlend mode="normal" in="SourceGraphic" in2="effect1_dropShadow_3_3" result="shape"/>
</filter>
<filter id="filter14_d_3_3" x="918" y="48" width="303" height="111" filterUnits="userSpaceOnUse" color-interpolation-filters="sRGB">
<feFlood flood-opacity="0" result="BackgroundImageFix"/>
<feColorMatrix in="SourceAlpha" type="matrix" values="0 0 0 0 0 0 0 0 0 0 0 0 0 0 0 0 0 0 127 0" result="hardAlpha"/>
<feOffset dx="8" dy="8"/>
<feGaussianBlur stdDeviation="10"/>
<feComposite in2="hardAlpha" operator="out"/>
<feColorMatrix type="matrix" values="0 0 0 0 0 0 0 0 0 0 0 0 0 0 0 0 0 0 0.25 0"/>
<feBlend mode="normal" in2="BackgroundImageFix" result="effect1_dropShadow_3_3"/>
<feBlend mode="normal" in="SourceGraphic" in2="effect1_dropShadow_3_3" result="shape"/>
</filter>
<filter id="filter15_d_3_3" x="918" y="127" width="303" height="121" filterUnits="userSpaceOnUse" color-interpolation-filters="sRGB">
<feFlood flood-opacity="0" result="BackgroundImageFix"/>
<feColorMatrix in="SourceAlpha" type="matrix" values="0 0 0 0 0 0 0 0 0 0 0 0 0 0 0 0 0 0 127 0" result="hardAlpha"/>
<feOffset dx="8" dy="8"/>
<feGaussianBlur stdDeviation="10"/>
<feComposite in2="hardAlpha" operator="out"/>
<feColorMatrix type="matrix" values="0 0 0 0 0 0 0 0 0 0 0 0 0 0 0 0 0 0 0.25 0"/>
<feBlend mode="normal" in2="BackgroundImageFix" result="effect1_dropShadow_3_3"/>
<feBlend mode="normal" in="SourceGraphic" in2="effect1_dropShadow_3_3" result="shape"/>
</filter>
<filter id="filter16_d_3_3" x="918" y="215" width="303" height="287" filterUnits="userSpaceOnUse" color-interpolation-filters="sRGB">
<feFlood flood-opacity="0" result="BackgroundImageFix"/>
<feColorMatrix in="SourceAlpha" type="matrix" values="0 0 0 0 0 0 0 0 0 0 0 0 0 0 0 0 0 0 127 0" result="hardAlpha"/>
<feOffset dx="8" dy="8"/>
<feGaussianBlur stdDeviation="10"/>
<feComposite in2="hardAlpha" operator="out"/>
<feColorMatrix type="matrix" values="0 0 0 0 0 0 0 0 0 0 0 0 0 0 0 0 0 0 0.25 0"/>
<feBlend mode="normal" in2="BackgroundImageFix" result="effect1_dropShadow_3_3"/>
<feBlend mode="normal" in="SourceGraphic" in2="effect1_dropShadow_3_3" result="shape"/>
</filter>
<filter id="filter17_d_3_3" x="918" y="470" width="303" height="120" filterUnits="userSpaceOnUse" color-interpolation-filters="sRGB">
<feFlood flood-opacity="0" result="BackgroundImageFix"/>
<feColorMatrix in="SourceAlpha" type="matrix" values="0 0 0 0 0 0 0 0 0 0 0 0 0 0 0 0 0 0 127 0" result="hardAlpha"/>
<feOffset dx="8" dy="8"/>
<feGaussianBlur stdDeviation="10"/>
<feComposite in2="hardAlpha" operator="out"/>
<feColorMatrix type="matrix" values="0 0 0 0 0 0 0 0 0 0 0 0 0 0 0 0 0 0 0.25 0"/>
<feBlend mode="normal" in2="BackgroundImageFix" result="effect1_dropShadow_3_3"/>
<feBlend mode="normal" in="SourceGraphic" in2="effect1_dropShadow_3_3" result="shape"/>
</filter>
<filter id="filter18_d_3_3" x="918" y="558" width="303" height="129" filterUnits="userSpaceOnUse" color-interpolation-filters="sRGB">
<feFlood flood-opacity="0" result="BackgroundImageFix"/>
<feColorMatrix in="SourceAlpha" type="matrix" values="0 0 0 0 0 0 0 0 0 0 0 0 0 0 0 0 0 0 127 0" result="hardAlpha"/>
<feOffset dx="8" dy="8"/>
<feGaussianBlur stdDeviation="10"/>
<feComposite in2="hardAlpha" operator="out"/>
<feColorMatrix type="matrix" values="0 0 0 0 0 0 0 0 0 0 0 0 0 0 0 0 0 0 0.25 0"/>
<feBlend mode="normal" in2="BackgroundImageFix" result="effect1_dropShadow_3_3"/>
<feBlend mode="normal" in="SourceGraphic" in2="effect1_dropShadow_3_3" result="shape"/>
</filter>
<linearGradient id="paint0_linear_3_3" x1="0" y1="0" x2="1280" y2="720" gradientUnits="userSpaceOnUse">
<stop stop-color="#2F2F2F"/>
<stop offset="0.395" stop-color="#929191" stop-opacity="0.605"/>
<stop offset="0.891666" stop-color="#FFFEFE" stop-opacity="0.108334"/>
<stop offset="1" stop-color="#FFFCFC" stop-opacity="0"/>
</linearGradient>
<linearGradient id="paint1_linear_3_3" x1="132.071" y1="599" x2="418.827" y2="765.637" gradientUnits="userSpaceOnUse">
<stop stop-color="#474747"/>
<stop offset="0.6" stop-color="#FFF9F9" stop-opacity="0"/>
</linearGradient>
<linearGradient id="paint2_linear_3_3" x1="132.071" y1="531" x2="418.827" y2="697.637" gradientUnits="userSpaceOnUse">
<stop stop-color="#474747"/>
<stop offset="0.6" stop-color="#FFF9F9" stop-opacity="0"/>
</linearGradient>
<linearGradient id="paint3_linear_3_3" x1="132.071" y1="459" x2="418.827" y2="625.637" gradientUnits="userSpaceOnUse">
<stop stop-color="#474747"/>
<stop offset="0.6" stop-color="#FFF9F9" stop-opacity="0"/>
</linearGradient>
<linearGradient id="paint4_linear_3_3" x1="132.071" y1="383" x2="418.827" y2="549.637" gradientUnits="userSpaceOnUse">
<stop stop-color="#474747"/>
<stop offset="0.6" stop-color="#FFF9F9" stop-opacity="0"/>
</linearGradient>
<linearGradient id="paint5_linear_3_3" x1="132.071" y1="220" x2="494.694" y2="307.196" gradientUnits="userSpaceOnUse">
<stop stop-color="#474747"/>
<stop offset="0.6" stop-color="#FFF9F9" stop-opacity="0"/>
</linearGradient>
<linearGradient id="paint6_linear_3_3" x1="132.071" y1="60" x2="494.694" y2="147.196" gradientUnits="userSpaceOnUse">
<stop stop-color="#474747"/>
<stop offset="0.6" stop-color="#FFF9F9" stop-opacity="0"/>
</linearGradient>
<clipPath id="clip0_3_3">
<rect width="40" height="40" fill="white" transform="translate(120 469)"/>
</clipPath>
<clipPath id="clip1_3_3">
<rect width="40" height="40" fill="white" transform="translate(116 541)"/>
</clipPath>
<clipPath id="clip2_3_3">
<rect width="40" height="40" fill="white" transform="translate(120 392)"/>
</clipPath>
<clipPath id="clip3_3_3">
<rect width="30" height="30" fill="white" transform="translate(36 601)"/>
</clipPath>
</defs>
</svg>
