<svg width="1280" height="720" viewBox="0 0 1280 720" fill="none" xmlns="http://www.w3.org/2000/svg">
<rect width="1280" height="720" fill="url(#paint0_linear_5_19)"/>
<g filter="url(#filter0_d_5_19)">
<rect x="51" y="47" width="1165" height="619" rx="20" fill="#FFFBFB"/>
</g>
<g filter="url(#filter1_d_5_19)">
<path d="M27 225C27 213.954 35.9543 205 47 205H65C76.0457 205 85 213.954 85 225V418C85 429.046 76.0457 438 65 438H47C35.9543 438 27 429.046 27 418V225Z" fill="#121111"/>
</g>
<g filter="url(#filter2_d_5_19)">
<path d="M352 36C352 24.9543 360.954 16 372 16H887C898.046 16 907 24.9543 907 36V59C907 70.0457 898.046 79 887 79H372C360.954 79 352 70.0457 352 59V36Z" fill="#121111"/>
</g>
<g filter="url(#filter3_d_5_19)">
<path d="M27 611C27 599.954 35.9543 591 47 591H57C68.0457 591 77 599.954 77 611V621C77 632.046 68.0457 641 57 641H47C35.9543 641 27 632.046 27 621V611Z" fill="#121111"/>
</g>
<circle cx="57.5" cy="323.5" r="27.5" fill="#BBB7B7"/>
<path d="M72.5 308C73.6935 308 74.8381 308.444 75.682 309.235C76.5259 310.026 77 311.099 77 312.217V333.783C77 334.901 76.5259 335.974 75.682 336.765C74.8381 337.556 73.6935 338 72.5 338H41.5C40.9091 338 40.3239 337.891 39.7779 337.679C39.232 337.467 38.7359 337.156 38.318 336.765C37.9002 336.373 37.5687 335.908 37.3425 335.397C37.1164 334.885 37 334.336 37 333.783V312.217C37 311.099 37.4741 310.026 38.318 309.235C39.1619 308.444 40.3065 308 41.5 308H72.5ZM72.5 310.812H41.5C41.1022 310.812 40.7206 310.96 40.4393 311.223C40.158 311.487 40 311.845 40 312.217V333.783C40 334.559 40.672 335.188 41.5 335.188H72.5C72.8978 335.188 73.2794 335.04 73.5607 334.777C73.842 334.513 74 334.155 74 333.783V312.217C74 311.845 73.842 311.487 73.5607 311.223C73.2794 310.96 72.8978 310.812 72.5 310.812ZM52.5 323.933C52.8978 323.933 53.2794 324.081 53.5607 324.344C53.842 324.608 54 324.965 54 325.338V326.262L53.984 326.465C53.658 328.551 51.796 329.558 49 329.558C46.204 329.558 44.34 328.551 44.016 326.465L44 326.259V325.338C44 324.965 44.158 324.608 44.4393 324.344C44.7206 324.081 45.1022 323.933 45.5 323.933H52.5ZM59.504 324.862H68.5C68.88 324.862 69.2459 324.998 69.5236 325.241C69.8013 325.484 69.9701 325.817 69.9961 326.172C70.022 326.528 69.903 326.879 69.6631 327.155C69.4233 327.432 69.0805 327.612 68.704 327.661L68.5 327.674H59.504C59.124 327.674 58.7581 327.538 58.4804 327.295C58.2027 327.052 58.0339 326.719 58.0079 326.364C57.982 326.009 58.101 325.657 58.3409 325.381C58.5807 325.105 58.9235 324.924 59.3 324.875L59.504 324.862ZM49 316.439C49.7956 316.439 50.5587 316.735 51.1213 317.262C51.6839 317.789 52 318.505 52 319.25C52 319.996 51.6839 320.711 51.1213 321.238C50.5587 321.766 49.7956 322.062 49 322.062C48.2044 322.062 47.4413 321.766 46.8787 321.238C46.3161 320.711 46 319.996 46 319.25C46 318.505 46.3161 317.789 46.8787 317.262C47.4413 316.735 48.2044 316.439 49 316.439ZM59.504 318.309H68.5C68.88 318.309 69.2459 318.445 69.5236 318.688C69.8013 318.931 69.9701 319.264 69.9961 319.619C70.022 319.975 69.903 320.326 69.6631 320.602C69.4233 320.879 69.0805 321.059 68.704 321.108L68.5 321.121H59.504C59.124 321.121 58.7581 320.985 58.4804 320.742C58.2027 320.499 58.0339 320.166 58.0079 319.811C57.982 319.456 58.101 319.104 58.3409 318.828C58.5807 318.552 58.9235 318.371 59.3 318.322L59.504 318.309Z" fill="white"/>
<path d="M55.418 226.353C55.1518 226.124 54.824 226 54.4865 226C54.149 226 53.8212 226.124 53.555 226.353L32 244.885L33.8645 247.485L36.5 245.219V265.692C36.5016 266.569 36.8182 267.409 37.3804 268.029C37.9427 268.649 38.7048 268.998 39.5 269H69.5C70.2952 268.998 71.0573 268.649 71.6196 268.029C72.1818 267.409 72.4984 266.569 72.5 265.692V245.234L75.1355 247.5L77 244.9L55.418 226.353ZM57.5 265.692H51.5V252.461H57.5V265.692ZM60.5 265.692V252.461C60.4992 251.584 60.1829 250.743 59.6204 250.123C59.058 249.503 58.2954 249.154 57.5 249.153H51.5C50.7046 249.154 49.942 249.503 49.3796 250.123C48.8171 250.743 48.5008 251.584 48.5 252.461V265.692H39.5V242.64L54.5 229.757L69.5 242.657V265.692H60.5Z" fill="white"/>
<path d="M50.3061 383.816C52.8401 379.272 54.106 377 56 377C57.894 377 59.1599 379.272 61.6939 383.816L62.3498 384.992C63.0698 386.284 63.4298 386.93 63.9898 387.356C64.5498 387.782 65.2498 387.94 66.6497 388.256L67.9217 388.544C72.8416 389.658 75.2995 390.214 75.8855 392.096C76.4695 393.976 74.7936 395.938 71.4396 399.86L70.5717 400.874C69.6197 401.988 69.1417 402.546 68.9277 403.234C68.7137 403.924 68.7857 404.668 68.9297 406.154L69.0617 407.508C69.5677 412.742 69.8217 415.358 68.2897 416.52C66.7577 417.684 64.4538 416.622 59.8499 414.502L58.6559 413.954C57.348 413.35 56.694 413.05 56 413.05C55.306 413.05 54.652 413.35 53.3441 413.954L52.1521 414.502C47.5462 416.622 45.2423 417.682 43.7123 416.522C42.1783 415.358 42.4323 412.742 42.9383 407.508L43.0703 406.156C43.2143 404.668 43.2863 403.924 43.0703 403.236C42.8583 402.546 42.3803 401.988 41.4283 400.876L40.5604 399.86C37.2064 395.94 35.5305 393.978 36.1145 392.096C36.7005 390.214 39.1604 389.656 44.0803 388.544L45.3523 388.256C46.7502 387.94 47.4482 387.782 48.0102 387.356C48.5702 386.93 48.9302 386.284 49.6501 384.992L50.3061 383.816Z" stroke="white" stroke-width="1.5"/>
<g filter="url(#filter4_d_5_19)">
<rect x="113" y="599" width="221" height="60" rx="15" fill="url(#paint1_linear_5_19)" shape-rendering="crispEdges"/>
</g>
<g filter="url(#filter5_d_5_19)">
<rect x="113" y="531" width="221" height="60" rx="15" fill="url(#paint2_linear_5_19)" shape-rendering="crispEdges"/>
</g>
<g filter="url(#filter6_d_5_19)">
<rect x="113" y="459" width="221" height="60" rx="15" fill="url(#paint3_linear_5_19)" shape-rendering="crispEdges"/>
</g>
<g filter="url(#filter7_d_5_19)">
<rect x="113" y="383" width="221" height="60" rx="15" fill="url(#paint4_linear_5_19)" shape-rendering="crispEdges"/>
</g>
<g filter="url(#filter8_d_5_19)">
<rect x="113" y="220" width="221" height="145" rx="15" fill="url(#paint5_linear_5_19)" shape-rendering="crispEdges"/>
</g>
<g filter="url(#filter9_d_5_19)">
<rect x="113" y="60" width="221" height="145" rx="15" fill="url(#paint6_linear_5_19)" shape-rendering="crispEdges"/>
</g>
<g opacity="0.3">
<path d="M139.688 615.922C139.688 615.197 139.457 614.501 139.047 613.988C138.637 613.476 138.08 613.188 137.5 613.188C136.92 613.188 136.363 613.476 135.953 613.988C135.543 614.501 135.312 615.197 135.312 615.922C135.312 616.647 135.543 617.343 135.953 617.855C136.363 618.368 136.92 618.656 137.5 618.656C138.08 618.656 138.637 618.368 139.047 617.855C139.457 617.343 139.688 616.647 139.688 615.922ZM127.875 625.219C128.455 625.219 129.012 624.931 129.422 624.418C129.832 623.905 130.062 623.21 130.062 622.484C130.062 621.759 129.832 621.064 129.422 620.551C129.012 620.038 128.455 619.75 127.875 619.75C127.295 619.75 126.738 620.038 126.328 620.551C125.918 621.064 125.688 621.759 125.688 622.484C125.688 623.21 125.918 623.905 126.328 624.418C126.738 624.931 127.295 625.219 127.875 625.219ZM121.75 639.438C120.782 639.438 120 640.415 120 641.625C120 642.835 120.782 643.812 121.75 643.812H153.25C154.218 643.812 155 642.835 155 641.625C155 640.415 154.218 639.438 153.25 639.438H121.75ZM147.125 625.219C147.705 625.219 148.262 624.931 148.672 624.418C149.082 623.905 149.312 623.21 149.312 622.484C149.312 621.759 149.082 621.064 148.672 620.551C148.262 620.038 147.705 619.75 147.125 619.75C146.545 619.75 145.988 620.038 145.578 620.551C145.168 621.064 144.938 621.759 144.938 622.484C144.938 623.21 145.168 623.905 145.578 624.418C145.988 624.931 146.545 625.219 147.125 625.219ZM130.938 632.431L132.409 635.842C132.753 636.642 133.546 636.936 134.186 636.512C134.826 636.088 135.061 635.09 134.722 634.29L132.737 629.676C132.83 629.56 132.912 629.43 132.972 629.279L134.438 625.868V629.594C134.438 630.804 135.22 631.781 136.188 631.781H138.812C139.78 631.781 140.562 630.804 140.562 629.594V625.868L142.034 629.279C142.099 629.43 142.176 629.56 142.269 629.676L140.284 634.29C139.939 635.09 140.18 636.081 140.82 636.512C141.459 636.942 142.252 636.642 142.597 635.842L144.062 632.431V635.062C144.062 636.272 144.845 637.25 145.812 637.25H148.438C149.405 637.25 150.188 636.272 150.188 635.062V632.431L151.659 635.842C152.003 636.642 152.796 636.936 153.436 636.512C154.076 636.088 154.311 635.09 153.972 634.29L151.899 629.484C151.062 627.536 149.433 626.319 147.661 626.319H146.589C145.698 626.319 144.845 626.627 144.106 627.181L142.269 622.922C141.432 620.974 139.802 619.757 138.03 619.757H136.964C135.192 619.757 133.568 620.974 132.726 622.922L130.888 627.181C130.15 626.627 129.297 626.319 128.405 626.319H127.339C125.567 626.319 123.943 627.536 123.101 629.484L121.034 634.283C120.689 635.083 120.93 636.074 121.57 636.505C122.209 636.936 123.002 636.635 123.347 635.835L124.812 632.431V635.062C124.812 636.272 125.595 637.25 126.562 637.25H129.188C130.155 637.25 130.938 636.272 130.938 635.062V632.431Z" fill="white"/>
</g>
<g opacity="0.3" clip-path="url(#clip0_5_19)">
<path d="M142.5 480.875C142.5 480.378 142.698 479.901 143.049 479.549C143.401 479.198 143.878 479 144.375 479H154.375C154.746 479 155.108 479.11 155.416 479.317C155.724 479.523 155.964 479.815 156.106 480.158C156.247 480.5 156.285 480.877 156.212 481.24C156.14 481.604 155.962 481.938 155.7 482.2L150.975 486.93C151.755 487.12 152.485 487.38 153.142 487.727C154.997 488.705 156.252 490.385 156.252 492.74C156.252 494.372 155.675 495.76 154.68 496.807C153.715 497.827 152.445 498.44 151.16 498.75C148.635 499.357 145.597 498.907 143.35 497.432C142.966 497.147 142.705 496.725 142.621 496.254C142.538 495.782 142.637 495.297 142.9 494.896C143.162 494.496 143.568 494.211 144.033 494.099C144.499 493.988 144.99 494.059 145.405 494.297C146.74 495.172 148.705 495.482 150.282 495.102C151.047 494.92 151.607 494.6 151.957 494.23C152.28 493.89 152.502 493.43 152.502 492.74C152.502 491.97 152.195 491.467 151.392 491.045C150.46 490.552 148.942 490.25 146.877 490.25C146.507 490.25 146.145 490.14 145.837 489.933C145.529 489.727 145.289 489.435 145.147 489.092C145.005 488.75 144.968 488.373 145.04 488.01C145.112 487.646 145.291 487.312 145.552 487.05L149.852 482.75H144.375C143.878 482.75 143.401 482.552 143.049 482.201C142.698 481.849 142.5 481.372 142.5 480.875ZM133.532 495.282C132.657 495.157 131.607 495.565 131.075 496.712C130.975 496.941 130.83 497.147 130.648 497.319C130.467 497.49 130.254 497.624 130.02 497.712C129.787 497.8 129.538 497.841 129.289 497.832C129.04 497.822 128.795 497.763 128.568 497.658C128.342 497.553 128.139 497.404 127.971 497.219C127.803 497.035 127.674 496.818 127.591 496.583C127.508 496.348 127.472 496.098 127.487 495.849C127.501 495.6 127.565 495.357 127.675 495.132C128.945 492.397 131.647 491.22 134.07 491.57C136.57 491.932 138.75 493.932 138.75 497.125C138.75 500.707 136.03 502.605 134.275 503.827C133.505 504.367 132.847 504.82 132.345 505.26H137.5C137.997 505.26 138.474 505.458 138.826 505.809C139.177 506.161 139.375 506.638 139.375 507.135C139.375 507.632 139.177 508.109 138.826 508.461C138.474 508.812 137.997 509.01 137.5 509.01H129.375C128.878 509.01 128.401 508.812 128.049 508.461C127.698 508.109 127.5 507.632 127.5 507.135C127.5 505.41 128.25 504.107 129.175 503.11C130.045 502.18 131.175 501.42 132.05 500.81C134.05 499.41 135 498.55 135 497.125C135 495.942 134.332 495.4 133.532 495.282ZM134.01 469.222C134.309 469.383 134.559 469.621 134.733 469.912C134.908 470.203 135 470.536 135 470.875V482.8H136.777C137.275 482.8 137.752 482.998 138.103 483.349C138.455 483.701 138.652 484.178 138.652 484.675C138.652 485.172 138.455 485.649 138.103 486.001C137.752 486.352 137.275 486.55 136.777 486.55H129.397C128.9 486.55 128.423 486.352 128.072 486.001C127.72 485.649 127.522 485.172 127.522 484.675C127.522 484.178 127.72 483.701 128.072 483.349C128.423 482.998 128.9 482.8 129.397 482.8H131.25V474.375L130.415 474.932C130.001 475.202 129.498 475.297 129.014 475.198C128.531 475.098 128.106 474.812 127.832 474.401C127.558 473.99 127.457 473.488 127.552 473.003C127.646 472.519 127.927 472.091 128.335 471.812L132.085 469.312C132.367 469.124 132.696 469.016 133.035 469C133.374 468.984 133.711 469.06 134.01 469.22V469.222Z" fill="white"/>
</g>
<g opacity="0.3" clip-path="url(#clip1_5_19)">
<path d="M138.5 552.875C138.5 552.378 138.698 551.901 139.049 551.549C139.401 551.198 139.878 551 140.375 551H150.375C150.746 551 151.108 551.11 151.416 551.317C151.724 551.523 151.964 551.815 152.106 552.158C152.247 552.5 152.285 552.877 152.212 553.24C152.14 553.604 151.962 553.938 151.7 554.2L146.975 558.93C147.755 559.12 148.485 559.38 149.142 559.727C150.997 560.705 152.252 562.385 152.252 564.74C152.252 566.372 151.675 567.76 150.68 568.807C149.715 569.827 148.445 570.44 147.16 570.75C144.635 571.357 141.597 570.907 139.35 569.432C138.966 569.147 138.705 568.725 138.621 568.254C138.538 567.782 138.637 567.297 138.9 566.896C139.162 566.496 139.568 566.211 140.033 566.099C140.499 565.988 140.99 566.059 141.405 566.297C142.74 567.172 144.705 567.482 146.282 567.102C147.047 566.92 147.607 566.6 147.957 566.23C148.28 565.89 148.502 565.43 148.502 564.74C148.502 563.97 148.195 563.467 147.392 563.045C146.46 562.552 144.942 562.25 142.877 562.25C142.507 562.25 142.145 562.14 141.837 561.933C141.529 561.727 141.289 561.435 141.147 561.092C141.005 560.75 140.968 560.373 141.04 560.01C141.112 559.646 141.291 559.312 141.552 559.05L145.852 554.75H140.375C139.878 554.75 139.401 554.552 139.049 554.201C138.698 553.849 138.5 553.372 138.5 552.875ZM129.532 567.282C128.657 567.157 127.607 567.565 127.075 568.712C126.975 568.941 126.83 569.147 126.648 569.319C126.467 569.49 126.254 569.624 126.02 569.712C125.787 569.8 125.538 569.841 125.289 569.832C125.04 569.822 124.795 569.763 124.568 569.658C124.342 569.553 124.139 569.404 123.971 569.219C123.803 569.035 123.674 568.818 123.591 568.583C123.508 568.348 123.472 568.098 123.487 567.849C123.501 567.6 123.565 567.357 123.675 567.132C124.945 564.397 127.647 563.22 130.07 563.57C132.57 563.932 134.75 565.932 134.75 569.125C134.75 572.707 132.03 574.605 130.275 575.827C129.505 576.367 128.847 576.82 128.345 577.26H133.5C133.997 577.26 134.474 577.458 134.826 577.809C135.177 578.161 135.375 578.638 135.375 579.135C135.375 579.632 135.177 580.109 134.826 580.461C134.474 580.812 133.997 581.01 133.5 581.01H125.375C124.878 581.01 124.401 580.812 124.049 580.461C123.698 580.109 123.5 579.632 123.5 579.135C123.5 577.41 124.25 576.107 125.175 575.11C126.045 574.18 127.175 573.42 128.05 572.81C130.05 571.41 131 570.55 131 569.125C131 567.942 130.332 567.4 129.532 567.282ZM130.01 541.222C130.309 541.383 130.559 541.621 130.733 541.912C130.908 542.203 131 542.536 131 542.875V554.8H132.777C133.275 554.8 133.752 554.998 134.103 555.349C134.455 555.701 134.652 556.178 134.652 556.675C134.652 557.172 134.455 557.649 134.103 558.001C133.752 558.352 133.275 558.55 132.777 558.55H125.397C124.9 558.55 124.423 558.352 124.072 558.001C123.72 557.649 123.522 557.172 123.522 556.675C123.522 556.178 123.72 555.701 124.072 555.349C124.423 554.998 124.9 554.8 125.397 554.8H127.25V546.375L126.415 546.932C126.001 547.202 125.498 547.297 125.014 547.198C124.531 547.098 124.106 546.812 123.832 546.401C123.558 545.99 123.457 545.488 123.552 545.003C123.646 544.519 123.927 544.091 124.335 543.812L128.085 541.312C128.367 541.124 128.696 541.016 129.035 541C129.374 540.984 129.711 541.06 130.01 541.22V541.222Z" fill="white"/>
</g>
<g opacity="0.3" clip-path="url(#clip2_5_19)">
<path d="M142.5 403.875C142.5 403.378 142.698 402.901 143.049 402.549C143.401 402.198 143.878 402 144.375 402H154.375C154.746 402 155.108 402.11 155.416 402.317C155.724 402.523 155.964 402.815 156.106 403.158C156.247 403.5 156.285 403.877 156.212 404.24C156.14 404.604 155.962 404.938 155.7 405.2L150.975 409.93C151.755 410.12 152.485 410.38 153.142 410.727C154.997 411.705 156.252 413.385 156.252 415.74C156.252 417.373 155.675 418.76 154.68 419.808C153.715 420.828 152.445 421.44 151.16 421.75C148.635 422.357 145.597 421.908 143.35 420.433C142.966 420.147 142.705 419.725 142.621 419.254C142.538 418.782 142.637 418.297 142.9 417.896C143.162 417.496 143.568 417.211 144.033 417.099C144.499 416.988 144.99 417.059 145.405 417.298C146.74 418.173 148.705 418.482 150.282 418.102C151.047 417.92 151.607 417.6 151.957 417.23C152.28 416.89 152.502 416.43 152.502 415.74C152.502 414.97 152.195 414.467 151.392 414.045C150.46 413.552 148.942 413.25 146.877 413.25C146.507 413.25 146.145 413.14 145.837 412.933C145.529 412.727 145.289 412.435 145.147 412.092C145.005 411.75 144.968 411.373 145.04 411.01C145.112 410.646 145.291 410.312 145.552 410.05L149.852 405.75H144.375C143.878 405.75 143.401 405.552 143.049 405.201C142.698 404.849 142.5 404.372 142.5 403.875ZM133.532 418.282C132.657 418.157 131.607 418.565 131.075 419.713C130.975 419.941 130.83 420.147 130.648 420.319C130.467 420.49 130.254 420.624 130.02 420.712C129.787 420.8 129.538 420.841 129.289 420.832C129.04 420.822 128.795 420.763 128.568 420.658C128.342 420.553 128.139 420.404 127.971 420.219C127.803 420.035 127.674 419.818 127.591 419.583C127.508 419.348 127.472 419.098 127.487 418.849C127.501 418.6 127.565 418.357 127.675 418.133C128.945 415.398 131.647 414.22 134.07 414.57C136.57 414.932 138.75 416.933 138.75 420.125C138.75 423.707 136.03 425.605 134.275 426.827C133.505 427.367 132.847 427.82 132.345 428.26H137.5C137.997 428.26 138.474 428.458 138.826 428.809C139.177 429.161 139.375 429.638 139.375 430.135C139.375 430.632 139.177 431.109 138.826 431.461C138.474 431.812 137.997 432.01 137.5 432.01H129.375C128.878 432.01 128.401 431.812 128.049 431.461C127.698 431.109 127.5 430.632 127.5 430.135C127.5 428.41 128.25 427.108 129.175 426.11C130.045 425.18 131.175 424.42 132.05 423.81C134.05 422.41 135 421.55 135 420.125C135 418.943 134.332 418.4 133.532 418.282ZM134.01 392.222C134.309 392.383 134.559 392.621 134.733 392.912C134.908 393.203 135 393.536 135 393.875V405.8H136.777C137.275 405.8 137.752 405.998 138.103 406.349C138.455 406.701 138.652 407.178 138.652 407.675C138.652 408.172 138.455 408.649 138.103 409.001C137.752 409.352 137.275 409.55 136.777 409.55H129.397C128.9 409.55 128.423 409.352 128.072 409.001C127.72 408.649 127.522 408.172 127.522 407.675C127.522 407.178 127.72 406.701 128.072 406.349C128.423 405.998 128.9 405.8 129.397 405.8H131.25V397.375L130.415 397.932C130.001 398.202 129.498 398.297 129.014 398.198C128.531 398.098 128.106 397.812 127.832 397.401C127.558 396.99 127.457 396.488 127.552 396.003C127.646 395.519 127.927 395.091 128.335 394.812L132.085 392.312C132.367 392.124 132.696 392.016 133.035 392C133.374 391.984 133.711 392.06 134.01 392.22V392.222Z" fill="white"/>
</g>
<g filter="url(#filter10_d_5_19)">
<rect x="352" y="110" width="555" height="117" fill="#FFFBFB"/>
</g>
<g filter="url(#filter11_d_5_19)">
<rect x="352" y="247" width="555" height="137" fill="#FFFBFB"/>
</g>
<g filter="url(#filter12_d_5_19)">
<rect x="352" y="394" width="555" height="126" fill="#FFFBFB"/>
</g>
<g filter="url(#filter13_d_5_19)">
<rect x="352" y="529" width="555" height="130" fill="#FFFBFB"/>
</g>
<g filter="url(#filter14_d_5_19)">
<rect x="930" y="60" width="263" height="71" fill="#FFFBFB"/>
</g>
<g filter="url(#filter15_d_5_19)">
<rect x="930" y="139" width="263" height="137" fill="#FFFBFB"/>
</g>
<g filter="url(#filter16_d_5_19)">
<rect x="930" y="289" width="263" height="170" fill="#FFFBFB"/>
</g>
<g filter="url(#filter17_d_5_19)">
<rect x="930" y="469" width="263" height="93" fill="#FFFDFD"/>
</g>
<g filter="url(#filter18_d_5_19)">
<rect x="930" y="570" width="263" height="89" fill="#FFFDFD"/>
</g>
<g clip-path="url(#clip3_5_19)">
<mask id="mask0_5_19" style="mask-type:luminance" maskUnits="userSpaceOnUse" x="36" y="601" width="30" height="30">
<path d="M36 601H66V631H36V601Z" fill="white"/>
</mask>
<g mask="url(#mask0_5_19)">
<path fill-rule="evenodd" clip-rule="evenodd" d="M58.4906 602.251C58.4758 602.063 58.4234 601.88 58.3364 601.712C58.2495 601.545 58.1298 601.397 57.9845 601.277C57.8392 601.157 57.6712 601.067 57.4906 601.014C57.31 600.96 57.1204 600.943 56.933 600.964C56.7457 600.984 56.5645 601.043 56.4001 601.135C56.2358 601.227 56.0917 601.352 55.9763 601.501C55.861 601.65 55.7769 601.821 55.7289 602.003C55.6808 602.185 55.67 602.375 55.6969 602.562L56.9812 614.125H55.3556C52.2806 614.125 49.9256 616.842 49.3612 619.863C48.9288 622.11 48.1708 624.283 47.1113 626.313C46.1888 628.09 45.375 629.125 45.375 629.125H61.3125C61.3125 629.125 65.2125 625.874 65.9775 618.831C66.2625 616.176 63.9562 614.125 61.29 614.125H59.8125L58.4906 602.251ZM43.0312 605.688C42.6583 605.688 42.3006 605.836 42.0369 606.099C41.7732 606.363 41.625 606.721 41.625 607.094C41.625 607.467 41.7732 607.824 42.0369 608.088C42.3006 608.352 42.6583 608.5 43.0312 608.5H51.4688C51.8417 608.5 52.1994 608.352 52.4631 608.088C52.7268 607.824 52.875 607.467 52.875 607.094C52.875 606.721 52.7268 606.363 52.4631 606.099C52.1994 605.836 51.8417 605.688 51.4688 605.688H43.0312ZM37.4062 612.25C37.0333 612.25 36.6756 612.398 36.4119 612.662C36.1482 612.926 36 613.283 36 613.656C36 614.029 36.1482 614.387 36.4119 614.651C36.6756 614.914 37.0333 615.063 37.4062 615.063H47.7188C48.0917 615.063 48.4494 614.914 48.7131 614.651C48.9768 614.387 49.125 614.029 49.125 613.656C49.125 613.283 48.9768 612.926 48.7131 612.662C48.4494 612.398 48.0917 612.25 47.7188 612.25H37.4062ZM37.875 620.219C37.875 619.846 38.0232 619.488 38.2869 619.224C38.5506 618.961 38.9083 618.813 39.2812 618.813H43.9688C44.3417 618.813 44.6994 618.961 44.9631 619.224C45.2268 619.488 45.375 619.846 45.375 620.219C45.375 620.592 45.2268 620.949 44.9631 621.213C44.6994 621.477 44.3417 621.625 43.9688 621.625H39.2812C38.9083 621.625 38.5506 621.477 38.2869 621.213C38.0232 620.949 37.875 620.592 37.875 620.219ZM50.2369 626.313C50.9737 624.689 51.6994 622.675 52.1269 620.378C52.5356 618.188 54.0862 616.938 55.3537 616.938H61.2919C61.9144 616.938 62.4506 617.181 62.7863 617.506C62.9295 617.632 63.0401 617.79 63.1087 617.968C63.1773 618.146 63.2017 618.338 63.18 618.528C62.8519 621.569 61.8525 623.738 60.9806 625.116C60.719 625.533 60.4302 625.933 60.1163 626.313H58.2431C59.2537 624.989 59.9062 623.073 59.9062 621.156H58.5C57.8419 623.461 56.49 625.071 54.4463 626.313H50.2369Z" fill="white"/>
</g>
</g>
<path d="M378.409 56V44.3636H382.341C383.25 44.3636 383.996 44.5189 384.58 44.8295C385.163 45.1364 385.595 45.5587 385.875 46.0966C386.155 46.6345 386.295 47.2462 386.295 47.9318C386.295 48.6174 386.155 49.2254 385.875 49.7557C385.595 50.286 385.165 50.7027 384.585 51.0057C384.006 51.3049 383.265 51.4545 382.364 51.4545H379.182V50.1818H382.318C382.939 50.1818 383.439 50.0909 383.818 49.9091C384.201 49.7273 384.477 49.4697 384.648 49.1364C384.822 48.7992 384.909 48.3977 384.909 47.9318C384.909 47.4659 384.822 47.0587 384.648 46.7102C384.473 46.3617 384.195 46.0928 383.812 45.9034C383.43 45.7102 382.924 45.6136 382.295 45.6136H379.818V56H378.409ZM383.886 50.7727L386.75 56H385.114L382.295 50.7727H383.886ZM388.643 56V44.3636H395.666V45.6136H390.053V49.5455H395.303V50.7955H390.053V54.75H395.757V56H388.643ZM398.206 56V44.3636H399.615V54.75H405.024V56H398.206ZM408.418 56H406.94L411.213 44.3636H412.668L416.94 56H415.463L411.986 46.2045H411.895L408.418 56ZM408.963 51.4545H414.918V52.7045H408.963V51.4545ZM416.757 45.6136V44.3636H425.484V45.6136H421.825V56H420.416V45.6136H416.757ZM436.993 50.1818C436.993 51.4091 436.771 52.4697 436.328 53.3636C435.885 54.2576 435.277 54.947 434.504 55.4318C433.732 55.9167 432.849 56.1591 431.857 56.1591C430.864 56.1591 429.982 55.9167 429.209 55.4318C428.436 54.947 427.828 54.2576 427.385 53.3636C426.942 52.4697 426.72 51.4091 426.72 50.1818C426.72 48.9545 426.942 47.8939 427.385 47C427.828 46.1061 428.436 45.4167 429.209 44.9318C429.982 44.447 430.864 44.2045 431.857 44.2045C432.849 44.2045 433.732 44.447 434.504 44.9318C435.277 45.4167 435.885 46.1061 436.328 47C436.771 47.8939 436.993 48.9545 436.993 50.1818ZM435.629 50.1818C435.629 49.1742 435.461 48.3239 435.124 47.6307C434.79 46.9375 434.338 46.4129 433.766 46.0568C433.197 45.7008 432.561 45.5227 431.857 45.5227C431.152 45.5227 430.514 45.7008 429.942 46.0568C429.374 46.4129 428.921 46.9375 428.584 47.6307C428.25 48.3239 428.084 49.1742 428.084 50.1818C428.084 51.1894 428.25 52.0398 428.584 52.733C428.921 53.4261 429.374 53.9508 429.942 54.3068C430.514 54.6629 431.152 54.8409 431.857 54.8409C432.561 54.8409 433.197 54.6629 433.766 54.3068C434.338 53.9508 434.79 53.4261 435.124 52.733C435.461 52.0398 435.629 51.1894 435.629 50.1818ZM431.243 43.1818L432.629 40.5455H434.197L432.425 43.1818H431.243ZM439.362 56V44.3636H443.294C444.203 44.3636 444.949 44.5189 445.533 44.8295C446.116 45.1364 446.548 45.5587 446.828 46.0966C447.108 46.6345 447.249 47.2462 447.249 47.9318C447.249 48.6174 447.108 49.2254 446.828 49.7557C446.548 50.286 446.118 50.7027 445.538 51.0057C444.959 51.3049 444.218 51.4545 443.317 51.4545H440.135V50.1818H443.271C443.893 50.1818 444.393 50.0909 444.771 49.9091C445.154 49.7273 445.43 49.4697 445.601 49.1364C445.775 48.7992 445.862 48.3977 445.862 47.9318C445.862 47.4659 445.775 47.0587 445.601 46.7102C445.427 46.3617 445.148 46.0928 444.766 45.9034C444.383 45.7102 443.877 45.6136 443.249 45.6136H440.771V56H439.362ZM444.839 50.7727L447.703 56H446.067L443.249 50.7727H444.839ZM451.006 44.3636V56H449.597V44.3636H451.006ZM463.649 50.1818C463.649 51.4091 463.428 52.4697 462.984 53.3636C462.541 54.2576 461.933 54.947 461.161 55.4318C460.388 55.9167 459.505 56.1591 458.513 56.1591C457.52 56.1591 456.638 55.9167 455.865 55.4318C455.092 54.947 454.484 54.2576 454.041 53.3636C453.598 52.4697 453.376 51.4091 453.376 50.1818C453.376 48.9545 453.598 47.8939 454.041 47C454.484 46.1061 455.092 45.4167 455.865 44.9318C456.638 44.447 457.52 44.2045 458.513 44.2045C459.505 44.2045 460.388 44.447 461.161 44.9318C461.933 45.4167 462.541 46.1061 462.984 47C463.428 47.8939 463.649 48.9545 463.649 50.1818ZM462.286 50.1818C462.286 49.1742 462.117 48.3239 461.78 47.6307C461.446 46.9375 460.994 46.4129 460.422 46.0568C459.854 45.7008 459.217 45.5227 458.513 45.5227C457.808 45.5227 457.17 45.7008 456.598 46.0568C456.03 46.4129 455.577 46.9375 455.24 47.6307C454.907 48.3239 454.74 49.1742 454.74 50.1818C454.74 51.1894 454.907 52.0398 455.24 52.733C455.577 53.4261 456.03 53.9508 456.598 54.3068C457.17 54.6629 457.808 54.8409 458.513 54.8409C459.217 54.8409 459.854 54.6629 460.422 54.3068C460.994 53.9508 461.446 53.4261 461.78 52.733C462.117 52.0398 462.286 51.1894 462.286 50.1818ZM474.109 56H470.518V44.3636H474.268C475.397 44.3636 476.363 44.5966 477.166 45.0625C477.969 45.5246 478.585 46.1894 479.013 47.0568C479.441 47.9205 479.655 48.9545 479.655 50.1591C479.655 51.3712 479.439 52.4148 479.007 53.2898C478.575 54.161 477.946 54.8314 477.121 55.3011C476.295 55.767 475.291 56 474.109 56ZM471.928 54.75H474.018C474.981 54.75 475.778 54.5644 476.411 54.1932C477.043 53.822 477.515 53.2936 477.825 52.608C478.136 51.9223 478.291 51.1061 478.291 50.1591C478.291 49.2197 478.138 48.411 477.831 47.733C477.524 47.0511 477.066 46.5284 476.456 46.1648C475.846 45.7973 475.087 45.6136 474.178 45.6136H471.928V54.75ZM482.018 56V44.3636H489.041V45.6136H483.428V49.5455H488.678V50.7955H483.428V54.75H489.132V56H482.018ZM499.672 56H496.081V44.3636H499.831C500.96 44.3636 501.926 44.5966 502.729 45.0625C503.532 45.5246 504.147 46.1894 504.575 47.0568C505.003 47.9205 505.217 48.9545 505.217 50.1591C505.217 51.3712 505.001 52.4148 504.57 53.2898C504.138 54.161 503.509 54.8314 502.683 55.3011C501.857 55.767 500.854 56 499.672 56ZM497.49 54.75H499.581C500.543 54.75 501.34 54.5644 501.973 54.1932C502.606 53.822 503.077 53.2936 503.388 52.608C503.698 51.9223 503.854 51.1061 503.854 50.1591C503.854 49.2197 503.7 48.411 503.393 47.733C503.087 47.0511 502.628 46.5284 502.018 46.1648C501.409 45.7973 500.649 45.6136 499.74 45.6136H497.49V54.75ZM507.581 56V44.3636H514.604V45.6136H508.99V49.5455H514.24V50.7955H508.99V54.75H514.695V56H507.581ZM523.507 47.2727C523.439 46.697 523.162 46.25 522.678 45.9318C522.193 45.6136 521.598 45.4545 520.893 45.4545C520.378 45.4545 519.928 45.5379 519.541 45.7045C519.159 45.8712 518.859 46.1004 518.643 46.392C518.431 46.6837 518.325 47.0152 518.325 47.3864C518.325 47.697 518.399 47.964 518.547 48.1875C518.698 48.4072 518.892 48.5909 519.126 48.7386C519.361 48.8826 519.607 49.0019 519.865 49.0966C520.123 49.1875 520.359 49.2614 520.575 49.3182L521.757 49.6364C522.06 49.7159 522.397 49.8258 522.768 49.9659C523.143 50.1061 523.501 50.2973 523.842 50.5398C524.187 50.7784 524.471 51.0852 524.695 51.4602C524.918 51.8352 525.03 52.2955 525.03 52.8409C525.03 53.4697 524.865 54.0379 524.536 54.5455C524.21 55.053 523.732 55.4564 523.104 55.7557C522.479 56.0549 521.719 56.2045 520.825 56.2045C519.992 56.2045 519.27 56.0701 518.661 55.8011C518.054 55.5322 517.577 55.1572 517.229 54.6761C516.884 54.1951 516.689 53.6364 516.643 53H518.098C518.136 53.4394 518.284 53.803 518.541 54.0909C518.803 54.375 519.132 54.5871 519.53 54.7273C519.931 54.8636 520.363 54.9318 520.825 54.9318C521.363 54.9318 521.846 54.8447 522.274 54.6705C522.702 54.4924 523.041 54.2462 523.291 53.9318C523.541 53.6136 523.666 53.2424 523.666 52.8182C523.666 52.4318 523.558 52.1174 523.342 51.875C523.126 51.6326 522.842 51.4356 522.49 51.2841C522.138 51.1326 521.757 51 521.348 50.8864L519.916 50.4773C519.007 50.2159 518.287 49.8428 517.757 49.358C517.227 48.8731 516.962 48.2386 516.962 47.4545C516.962 46.803 517.138 46.2348 517.49 45.75C517.846 45.2614 518.323 44.8826 518.922 44.6136C519.524 44.3409 520.196 44.2045 520.939 44.2045C521.689 44.2045 522.356 44.339 522.939 44.608C523.522 44.8731 523.984 45.2367 524.325 45.6989C524.67 46.161 524.852 46.6856 524.871 47.2727H523.507ZM527.347 56V44.3636H534.369V45.6136H528.756V49.5455H534.006V50.7955H528.756V54.75H534.46V56H527.347ZM536.909 44.3636H538.591L542.545 54.0227H542.682L546.636 44.3636H548.318V56H547V47.1591H546.886L543.25 56H541.977L538.341 47.1591H538.227V56H536.909V44.3636ZM551.143 56V44.3636H555.075C555.988 44.3636 556.734 44.5284 557.314 44.858C557.897 45.1837 558.329 45.625 558.609 46.1818C558.89 46.7386 559.03 47.3598 559.03 48.0455C559.03 48.7311 558.89 49.3542 558.609 49.9148C558.333 50.4754 557.905 50.9223 557.325 51.2557C556.746 51.5852 556.003 51.75 555.098 51.75H552.28V50.5H555.053C555.678 50.5 556.179 50.392 556.558 50.1761C556.937 49.9602 557.212 49.6686 557.382 49.3011C557.556 48.9299 557.643 48.5114 557.643 48.0455C557.643 47.5795 557.556 47.1629 557.382 46.7955C557.212 46.428 556.935 46.1402 556.553 45.9318C556.17 45.7197 555.662 45.6136 555.03 45.6136H552.553V56H551.143ZM561.3 56V44.3636H568.322V45.6136H562.709V49.5455H567.959V50.7955H562.709V54.75H568.413V56H561.3ZM580.089 44.3636V56H578.726L572.385 46.8636H572.271V56H570.862V44.3636H572.226L578.589 53.5227H578.703V44.3636H580.089ZM582.909 56V44.3636H584.318V49.5455H590.523V44.3636H591.932V56H590.523V50.7955H584.318V56H582.909ZM604.571 50.1818C604.571 51.4091 604.349 52.4697 603.906 53.3636C603.463 54.2576 602.855 54.947 602.082 55.4318C601.31 55.9167 600.427 56.1591 599.435 56.1591C598.442 56.1591 597.56 55.9167 596.787 55.4318C596.014 54.947 595.406 54.2576 594.963 53.3636C594.52 52.4697 594.298 51.4091 594.298 50.1818C594.298 48.9545 594.52 47.8939 594.963 47C595.406 46.1061 596.014 45.4167 596.787 44.9318C597.56 44.447 598.442 44.2045 599.435 44.2045C600.427 44.2045 601.31 44.447 602.082 44.9318C602.855 45.4167 603.463 46.1061 603.906 47C604.349 47.8939 604.571 48.9545 604.571 50.1818ZM603.207 50.1818C603.207 49.1742 603.039 48.3239 602.702 47.6307C602.368 46.9375 601.916 46.4129 601.344 46.0568C600.776 45.7008 600.139 45.5227 599.435 45.5227C598.73 45.5227 598.092 45.7008 597.52 46.0568C596.952 46.4129 596.499 46.9375 596.162 47.6307C595.829 48.3239 595.662 49.1742 595.662 50.1818C595.662 51.1894 595.829 52.0398 596.162 52.733C596.499 53.4261 596.952 53.9508 597.52 54.3068C598.092 54.6629 598.73 54.8409 599.435 54.8409C600.139 54.8409 600.776 54.6629 601.344 54.3068C601.916 53.9508 602.368 53.4261 602.702 52.733C603.039 52.0398 603.207 51.1894 603.207 50.1818ZM611.44 56V44.3636H618.463V45.6136H612.849V49.5455H618.099V50.7955H612.849V54.75H618.554V56H611.44ZM627.366 47.2727C627.298 46.697 627.022 46.25 626.537 45.9318C626.052 45.6136 625.457 45.4545 624.753 45.4545C624.238 45.4545 623.787 45.5379 623.401 45.7045C623.018 45.8712 622.719 46.1004 622.503 46.392C622.291 46.6837 622.185 47.0152 622.185 47.3864C622.185 47.697 622.259 47.964 622.406 48.1875C622.558 48.4072 622.751 48.5909 622.986 48.7386C623.221 48.8826 623.467 49.0019 623.724 49.0966C623.982 49.1875 624.219 49.2614 624.435 49.3182L625.616 49.6364C625.92 49.7159 626.257 49.8258 626.628 49.9659C627.003 50.1061 627.361 50.2973 627.702 50.5398C628.046 50.7784 628.33 51.0852 628.554 51.4602C628.777 51.8352 628.889 52.2955 628.889 52.8409C628.889 53.4697 628.724 54.0379 628.395 54.5455C628.069 55.053 627.592 55.4564 626.963 55.7557C626.338 56.0549 625.579 56.2045 624.685 56.2045C623.851 56.2045 623.13 56.0701 622.52 55.8011C621.914 55.5322 621.437 55.1572 621.088 54.6761C620.743 54.1951 620.548 53.6364 620.503 53H621.957C621.995 53.4394 622.143 53.803 622.401 54.0909C622.662 54.375 622.991 54.5871 623.389 54.7273C623.791 54.8636 624.223 54.9318 624.685 54.9318C625.223 54.9318 625.705 54.8447 626.134 54.6705C626.562 54.4924 626.901 54.2462 627.151 53.9318C627.401 53.6136 627.526 53.2424 627.526 52.8182C627.526 52.4318 627.418 52.1174 627.202 51.875C626.986 51.6326 626.702 51.4356 626.349 51.2841C625.997 51.1326 625.616 51 625.207 50.8864L623.776 50.4773C622.866 50.2159 622.147 49.8428 621.616 49.358C621.086 48.8731 620.821 48.2386 620.821 47.4545C620.821 46.803 620.997 46.2348 621.349 45.75C621.705 45.2614 622.183 44.8826 622.781 44.6136C623.384 44.3409 624.056 44.2045 624.798 44.2045C625.548 44.2045 626.215 44.339 626.798 44.608C627.382 44.8731 627.844 45.2367 628.185 45.6989C628.529 46.161 628.711 46.6856 628.73 47.2727H627.366ZM640.57 48H639.161C639.077 47.5947 638.931 47.2386 638.723 46.9318C638.518 46.625 638.268 46.3674 637.973 46.1591C637.681 45.947 637.357 45.7879 637.001 45.6818C636.645 45.5758 636.274 45.5227 635.888 45.5227C635.183 45.5227 634.545 45.7008 633.973 46.0568C633.405 46.4129 632.952 46.9375 632.615 47.6307C632.282 48.3239 632.115 49.1742 632.115 50.1818C632.115 51.1894 632.282 52.0398 632.615 52.733C632.952 53.4261 633.405 53.9508 633.973 54.3068C634.545 54.6629 635.183 54.8409 635.888 54.8409C636.274 54.8409 636.645 54.7879 637.001 54.6818C637.357 54.5758 637.681 54.4186 637.973 54.2102C638.268 53.9981 638.518 53.7386 638.723 53.4318C638.931 53.1212 639.077 52.7652 639.161 52.3636H640.57C640.464 52.9583 640.27 53.4905 639.99 53.9602C639.71 54.4299 639.361 54.8295 638.945 55.1591C638.528 55.4848 638.06 55.733 637.541 55.9034C637.026 56.0739 636.475 56.1591 635.888 56.1591C634.895 56.1591 634.013 55.9167 633.24 55.4318C632.467 54.947 631.859 54.2576 631.416 53.3636C630.973 52.4697 630.751 51.4091 630.751 50.1818C630.751 48.9545 630.973 47.8939 631.416 47C631.859 46.1061 632.467 45.4167 633.24 44.9318C634.013 44.447 634.895 44.2045 635.888 44.2045C636.475 44.2045 637.026 44.2898 637.541 44.4602C638.06 44.6307 638.528 44.8807 638.945 45.2102C639.361 45.536 639.71 45.9337 639.99 46.4034C640.27 46.8693 640.464 47.4015 640.57 48ZM652.665 50.1818C652.665 51.4091 652.443 52.4697 652 53.3636C651.557 54.2576 650.949 54.947 650.176 55.4318C649.403 55.9167 648.521 56.1591 647.528 56.1591C646.536 56.1591 645.653 55.9167 644.881 55.4318C644.108 54.947 643.5 54.2576 643.057 53.3636C642.614 52.4697 642.392 51.4091 642.392 50.1818C642.392 48.9545 642.614 47.8939 643.057 47C643.5 46.1061 644.108 45.4167 644.881 44.9318C645.653 44.447 646.536 44.2045 647.528 44.2045C648.521 44.2045 649.403 44.447 650.176 44.9318C650.949 45.4167 651.557 46.1061 652 47C652.443 47.8939 652.665 48.9545 652.665 50.1818ZM651.301 50.1818C651.301 49.1742 651.133 48.3239 650.795 47.6307C650.462 46.9375 650.009 46.4129 649.438 46.0568C648.869 45.7008 648.233 45.5227 647.528 45.5227C646.824 45.5227 646.186 45.7008 645.614 46.0568C645.045 46.4129 644.593 46.9375 644.256 47.6307C643.922 48.3239 643.756 49.1742 643.756 50.1818C643.756 51.1894 643.922 52.0398 644.256 52.733C644.593 53.4261 645.045 53.9508 645.614 54.3068C646.186 54.6629 646.824 54.8409 647.528 54.8409C648.233 54.8409 648.869 54.6629 649.438 54.3068C650.009 53.9508 650.462 53.4261 650.795 52.733C651.133 52.0398 651.301 51.1894 651.301 50.1818ZM655.034 56V44.3636H656.443V54.75H661.852V56H655.034ZM665.246 56H663.768L668.041 44.3636H669.496L673.768 56H672.291L668.814 46.2045H668.723L665.246 56ZM665.791 51.4545H671.746V52.7045H665.791V51.4545ZM675.581 56V44.3636H679.513C680.422 44.3636 681.168 44.5189 681.751 44.8295C682.335 45.1364 682.767 45.5587 683.047 46.0966C683.327 46.6345 683.467 47.2462 683.467 47.9318C683.467 48.6174 683.327 49.2254 683.047 49.7557C682.767 50.286 682.337 50.7027 681.757 51.0057C681.178 51.3049 680.437 51.4545 679.536 51.4545H676.354V50.1818H679.49C680.111 50.1818 680.611 50.0909 680.99 49.9091C681.373 49.7273 681.649 49.4697 681.82 49.1364C681.994 48.7992 682.081 48.3977 682.081 47.9318C682.081 47.4659 681.994 47.0587 681.82 46.7102C681.645 46.3617 681.367 46.0928 680.984 45.9034C680.602 45.7102 680.096 45.6136 679.467 45.6136H676.99V56H675.581ZM681.058 50.7727L683.922 56H682.286L679.467 50.7727H681.058ZM690.315 56V44.3636H697.338V45.6136H691.724V49.5455H696.974V50.7955H691.724V54.75H697.429V56H690.315ZM713.741 48H712.332C712.249 47.5947 712.103 47.2386 711.895 46.9318C711.69 46.625 711.44 46.3674 711.145 46.1591C710.853 45.947 710.529 45.7879 710.173 45.6818C709.817 45.5758 709.446 45.5227 709.06 45.5227C708.355 45.5227 707.717 45.7008 707.145 46.0568C706.577 46.4129 706.124 46.9375 705.787 47.6307C705.454 48.3239 705.287 49.1742 705.287 50.1818C705.287 51.1894 705.454 52.0398 705.787 52.733C706.124 53.4261 706.577 53.9508 707.145 54.3068C707.717 54.6629 708.355 54.8409 709.06 54.8409C709.446 54.8409 709.817 54.7879 710.173 54.6818C710.529 54.5758 710.853 54.4186 711.145 54.2102C711.44 53.9981 711.69 53.7386 711.895 53.4318C712.103 53.1212 712.249 52.7652 712.332 52.3636H713.741C713.635 52.9583 713.442 53.4905 713.162 53.9602C712.882 54.4299 712.533 54.8295 712.116 55.1591C711.7 55.4848 711.232 55.733 710.713 55.9034C710.198 56.0739 709.647 56.1591 709.06 56.1591C708.067 56.1591 707.185 55.9167 706.412 55.4318C705.639 54.947 705.031 54.2576 704.588 53.3636C704.145 52.4697 703.923 51.4091 703.923 50.1818C703.923 48.9545 704.145 47.8939 704.588 47C705.031 46.1061 705.639 45.4167 706.412 44.9318C707.185 44.447 708.067 44.2045 709.06 44.2045C709.647 44.2045 710.198 44.2898 710.713 44.4602C711.232 44.6307 711.7 44.8807 712.116 45.2102C712.533 45.536 712.882 45.9337 713.162 46.4034C713.442 46.8693 713.635 47.4015 713.741 48ZM725.837 50.1818C725.837 51.4091 725.615 52.4697 725.172 53.3636C724.729 54.2576 724.121 54.947 723.348 55.4318C722.575 55.9167 721.693 56.1591 720.7 56.1591C719.708 56.1591 718.825 55.9167 718.053 55.4318C717.28 54.947 716.672 54.2576 716.229 53.3636C715.786 52.4697 715.564 51.4091 715.564 50.1818C715.564 48.9545 715.786 47.8939 716.229 47C716.672 46.1061 717.28 45.4167 718.053 44.9318C718.825 44.447 719.708 44.2045 720.7 44.2045C721.693 44.2045 722.575 44.447 723.348 44.9318C724.121 45.4167 724.729 46.1061 725.172 47C725.615 47.8939 725.837 48.9545 725.837 50.1818ZM724.473 50.1818C724.473 49.1742 724.304 48.3239 723.967 47.6307C723.634 46.9375 723.181 46.4129 722.609 46.0568C722.041 45.7008 721.405 45.5227 720.7 45.5227C719.996 45.5227 719.357 45.7008 718.786 46.0568C718.217 46.4129 717.765 46.9375 717.428 47.6307C717.094 48.3239 716.928 49.1742 716.928 50.1818C716.928 51.1894 717.094 52.0398 717.428 52.733C717.765 53.4261 718.217 53.9508 718.786 54.3068C719.357 54.6629 719.996 54.8409 720.7 54.8409C721.405 54.8409 722.041 54.6629 722.609 54.3068C723.181 53.9508 723.634 53.4261 723.967 52.733C724.304 52.0398 724.473 51.1894 724.473 50.1818ZM737.433 44.3636V56H736.07L729.729 46.8636H729.615V56H728.206V44.3636H729.57L735.933 53.5227H736.047V44.3636H737.433ZM746.616 47.2727C746.548 46.697 746.272 46.25 745.787 45.9318C745.302 45.6136 744.707 45.4545 744.003 45.4545C743.488 45.4545 743.037 45.5379 742.651 45.7045C742.268 45.8712 741.969 46.1004 741.753 46.392C741.541 46.6837 741.435 47.0152 741.435 47.3864C741.435 47.697 741.509 47.964 741.656 48.1875C741.808 48.4072 742.001 48.5909 742.236 48.7386C742.471 48.8826 742.717 49.0019 742.974 49.0966C743.232 49.1875 743.469 49.2614 743.685 49.3182L744.866 49.6364C745.17 49.7159 745.507 49.8258 745.878 49.9659C746.253 50.1061 746.611 50.2973 746.952 50.5398C747.296 50.7784 747.58 51.0852 747.804 51.4602C748.027 51.8352 748.139 52.2955 748.139 52.8409C748.139 53.4697 747.974 54.0379 747.645 54.5455C747.319 55.053 746.842 55.4564 746.213 55.7557C745.588 56.0549 744.829 56.2045 743.935 56.2045C743.101 56.2045 742.38 56.0701 741.77 55.8011C741.164 55.5322 740.687 55.1572 740.338 54.6761C739.993 54.1951 739.798 53.6364 739.753 53H741.207C741.245 53.4394 741.393 53.803 741.651 54.0909C741.912 54.375 742.241 54.5871 742.639 54.7273C743.041 54.8636 743.473 54.9318 743.935 54.9318C744.473 54.9318 744.955 54.8447 745.384 54.6705C745.812 54.4924 746.151 54.2462 746.401 53.9318C746.651 53.6136 746.776 53.2424 746.776 52.8182C746.776 52.4318 746.668 52.1174 746.452 51.875C746.236 51.6326 745.952 51.4356 745.599 51.2841C745.247 51.1326 744.866 51 744.457 50.8864L743.026 50.4773C742.116 50.2159 741.397 49.8428 740.866 49.358C740.336 48.8731 740.071 48.2386 740.071 47.4545C740.071 46.803 740.247 46.2348 740.599 45.75C740.955 45.2614 741.433 44.8826 742.031 44.6136C742.634 44.3409 743.306 44.2045 744.048 44.2045C744.798 44.2045 745.465 44.339 746.048 44.608C746.632 44.8731 747.094 45.2367 747.435 45.6989C747.779 46.161 747.961 46.6856 747.98 47.2727H746.616ZM758.092 44.3636H759.501V52.0682C759.501 52.8636 759.314 53.5739 758.939 54.1989C758.568 54.8201 758.043 55.3106 757.365 55.6705C756.687 56.0265 755.892 56.2045 754.979 56.2045C754.066 56.2045 753.27 56.0265 752.592 55.6705C751.914 55.3106 751.388 54.8201 751.013 54.1989C750.642 53.5739 750.456 52.8636 750.456 52.0682V44.3636H751.865V51.9545C751.865 52.5227 751.99 53.0284 752.24 53.4716C752.49 53.911 752.846 54.2576 753.308 54.5114C753.774 54.7614 754.331 54.8864 754.979 54.8864C755.626 54.8864 756.183 54.7614 756.649 54.5114C757.115 54.2576 757.471 53.911 757.717 53.4716C757.967 53.0284 758.092 52.5227 758.092 51.9545V44.3636ZM762.315 44.3636H763.997L767.952 54.0227H768.088L772.043 44.3636H773.724V56H772.406V47.1591H772.293L768.656 56H767.384L763.747 47.1591H763.634V56H762.315V44.3636ZM786.368 50.1818C786.368 51.4091 786.146 52.4697 785.703 53.3636C785.26 54.2576 784.652 54.947 783.879 55.4318C783.107 55.9167 782.224 56.1591 781.232 56.1591C780.239 56.1591 779.357 55.9167 778.584 55.4318C777.811 54.947 777.203 54.2576 776.76 53.3636C776.317 52.4697 776.095 51.4091 776.095 50.1818C776.095 48.9545 776.317 47.8939 776.76 47C777.203 46.1061 777.811 45.4167 778.584 44.9318C779.357 44.447 780.239 44.2045 781.232 44.2045C782.224 44.2045 783.107 44.447 783.879 44.9318C784.652 45.4167 785.26 46.1061 785.703 47C786.146 47.8939 786.368 48.9545 786.368 50.1818ZM785.004 50.1818C785.004 49.1742 784.836 48.3239 784.499 47.6307C784.165 46.9375 783.713 46.4129 783.141 46.0568C782.572 45.7008 781.936 45.5227 781.232 45.5227C780.527 45.5227 779.889 45.7008 779.317 46.0568C778.749 46.4129 778.296 46.9375 777.959 47.6307C777.625 48.3239 777.459 49.1742 777.459 50.1818C777.459 51.1894 777.625 52.0398 777.959 52.733C778.296 53.4261 778.749 53.9508 779.317 54.3068C779.889 54.6629 780.527 54.8409 781.232 54.8409C781.936 54.8409 782.572 54.6629 783.141 54.3068C783.713 53.9508 784.165 53.4261 784.499 52.733C784.836 52.0398 785.004 51.1894 785.004 50.1818ZM796.828 56H793.237V44.3636H796.987C798.116 44.3636 799.082 44.5966 799.885 45.0625C800.688 45.5246 801.304 46.1894 801.732 47.0568C802.16 47.9205 802.374 48.9545 802.374 50.1591C802.374 51.3712 802.158 52.4148 801.726 53.2898C801.294 54.161 800.665 54.8314 799.839 55.3011C799.014 55.767 798.01 56 796.828 56ZM794.646 54.75H796.737C797.699 54.75 798.497 54.5644 799.129 54.1932C799.762 53.822 800.233 53.2936 800.544 52.608C800.855 51.9223 801.01 51.1061 801.01 50.1591C801.01 49.2197 800.857 48.411 800.55 47.733C800.243 47.0511 799.785 46.5284 799.175 46.1648C798.565 45.7973 797.805 45.6136 796.896 45.6136H794.646V54.75ZM804.737 56V44.3636H811.76V45.6136H806.146V49.5455H811.396V50.7955H806.146V54.75H811.851V56H804.737ZM819.277 56H817.8L822.072 44.3636H823.527L827.8 56H826.322L822.845 46.2045H822.754L819.277 56ZM819.822 51.4545H825.777V52.7045H819.822V51.4545ZM822.186 43.1818L823.572 40.5455H825.141L823.368 43.1818H822.186ZM829.612 56V44.3636H831.021V54.75H836.43V56H829.612ZM847.523 48H846.114C846.03 47.5947 845.884 47.2386 845.676 46.9318C845.472 46.625 845.222 46.3674 844.926 46.1591C844.634 45.947 844.311 45.7879 843.955 45.6818C843.598 45.5758 843.227 45.5227 842.841 45.5227C842.136 45.5227 841.498 45.7008 840.926 46.0568C840.358 46.4129 839.905 46.9375 839.568 47.6307C839.235 48.3239 839.068 49.1742 839.068 50.1818C839.068 51.1894 839.235 52.0398 839.568 52.733C839.905 53.4261 840.358 53.9508 840.926 54.3068C841.498 54.6629 842.136 54.8409 842.841 54.8409C843.227 54.8409 843.598 54.7879 843.955 54.6818C844.311 54.5758 844.634 54.4186 844.926 54.2102C845.222 53.9981 845.472 53.7386 845.676 53.4318C845.884 53.1212 846.03 52.7652 846.114 52.3636H847.523C847.417 52.9583 847.223 53.4905 846.943 53.9602C846.663 54.4299 846.314 54.8295 845.898 55.1591C845.481 55.4848 845.013 55.733 844.494 55.9034C843.979 56.0739 843.428 56.1591 842.841 56.1591C841.848 56.1591 840.966 55.9167 840.193 55.4318C839.42 54.947 838.813 54.2576 838.369 53.3636C837.926 52.4697 837.705 51.4091 837.705 50.1818C837.705 48.9545 837.926 47.8939 838.369 47C838.813 46.1061 839.42 45.4167 840.193 44.9318C840.966 44.447 841.848 44.2045 842.841 44.2045C843.428 44.2045 843.979 44.2898 844.494 44.4602C845.013 44.6307 845.481 44.8807 845.898 45.2102C846.314 45.536 846.663 45.9337 846.943 46.4034C847.223 46.8693 847.417 47.4015 847.523 48ZM859.618 50.1818C859.618 51.4091 859.396 52.4697 858.953 53.3636C858.51 54.2576 857.902 54.947 857.129 55.4318C856.357 55.9167 855.474 56.1591 854.482 56.1591C853.489 56.1591 852.607 55.9167 851.834 55.4318C851.061 54.947 850.453 54.2576 850.01 53.3636C849.567 52.4697 849.345 51.4091 849.345 50.1818C849.345 48.9545 849.567 47.8939 850.01 47C850.453 46.1061 851.061 45.4167 851.834 44.9318C852.607 44.447 853.489 44.2045 854.482 44.2045C855.474 44.2045 856.357 44.447 857.129 44.9318C857.902 45.4167 858.51 46.1061 858.953 47C859.396 47.8939 859.618 48.9545 859.618 50.1818ZM858.254 50.1818C858.254 49.1742 858.086 48.3239 857.749 47.6307C857.415 46.9375 856.963 46.4129 856.391 46.0568C855.822 45.7008 855.186 45.5227 854.482 45.5227C853.777 45.5227 853.139 45.7008 852.567 46.0568C851.999 46.4129 851.546 46.9375 851.209 47.6307C850.875 48.3239 850.709 49.1742 850.709 50.1818C850.709 51.1894 850.875 52.0398 851.209 52.733C851.546 53.4261 851.999 53.9508 852.567 54.3068C853.139 54.6629 853.777 54.8409 854.482 54.8409C855.186 54.8409 855.822 54.6629 856.391 54.3068C856.963 53.9508 857.415 53.4261 857.749 52.733C858.086 52.0398 858.254 51.1894 858.254 50.1818ZM871.805 50.1818C871.805 51.4091 871.584 52.4697 871.141 53.3636C870.697 54.2576 870.089 54.947 869.317 55.4318C868.544 55.9167 867.661 56.1591 866.669 56.1591C865.677 56.1591 864.794 55.9167 864.021 55.4318C863.249 54.947 862.641 54.2576 862.197 53.3636C861.754 52.4697 861.533 51.4091 861.533 50.1818C861.533 48.9545 861.754 47.8939 862.197 47C862.641 46.1061 863.249 45.4167 864.021 44.9318C864.794 44.447 865.677 44.2045 866.669 44.2045C867.661 44.2045 868.544 44.447 869.317 44.9318C870.089 45.4167 870.697 46.1061 871.141 47C871.584 47.8939 871.805 48.9545 871.805 50.1818ZM870.442 50.1818C870.442 49.1742 870.273 48.3239 869.936 47.6307C869.603 46.9375 869.15 46.4129 868.578 46.0568C868.01 45.7008 867.374 45.5227 866.669 45.5227C865.964 45.5227 865.326 45.7008 864.754 46.0568C864.186 46.4129 863.733 46.9375 863.396 47.6307C863.063 48.3239 862.896 49.1742 862.896 50.1818C862.896 51.1894 863.063 52.0398 863.396 52.733C863.733 53.4261 864.186 53.9508 864.754 54.3068C865.326 54.6629 865.964 54.8409 866.669 54.8409C867.374 54.8409 868.01 54.6629 868.578 54.3068C869.15 53.9508 869.603 53.4261 869.936 52.733C870.273 52.0398 870.442 51.1894 870.442 50.1818ZM874.175 56V44.3636H875.584V54.75H880.993V56H874.175Z" fill="white"/>
<rect width="50" height="50" transform="translate(1191 629)" fill="#101010" fill-opacity="0.5"/>
<path d="M1235.24 640.018L1216.49 633.768C1216.17 633.661 1215.83 633.661 1215.51 633.768L1196.76 640.018C1196.44 640.121 1196.17 640.32 1195.98 640.586C1195.79 640.852 1195.69 641.172 1195.69 641.5V657.125C1195.69 657.539 1195.85 657.937 1196.15 658.23C1196.44 658.523 1196.84 658.687 1197.25 658.687C1197.66 658.687 1198.06 658.523 1198.35 658.23C1198.65 657.937 1198.81 657.539 1198.81 657.125V643.668L1205.37 645.854C1203.63 648.67 1203.08 652.062 1203.83 655.287C1204.59 658.511 1206.59 661.303 1209.41 663.051C1205.89 664.43 1202.85 666.924 1200.63 670.334C1200.51 670.506 1200.43 670.699 1200.39 670.902C1200.35 671.105 1200.35 671.314 1200.39 671.517C1200.44 671.72 1200.52 671.913 1200.63 672.084C1200.75 672.255 1200.9 672.402 1201.07 672.515C1201.25 672.628 1201.44 672.706 1201.64 672.743C1201.85 672.78 1202.06 672.777 1202.26 672.733C1202.46 672.689 1202.65 672.605 1202.82 672.486C1202.99 672.367 1203.14 672.216 1203.25 672.041C1206.19 667.525 1210.84 664.937 1216 664.937C1221.16 664.937 1225.81 667.525 1228.75 672.041C1228.98 672.382 1229.34 672.618 1229.74 672.7C1230.14 672.782 1230.56 672.702 1230.9 672.477C1231.25 672.253 1231.49 671.903 1231.58 671.502C1231.66 671.1 1231.59 670.681 1231.37 670.334C1229.15 666.924 1226.1 664.43 1222.59 663.051C1225.4 661.303 1227.41 658.513 1228.16 655.291C1228.92 652.069 1228.37 648.678 1226.63 645.863L1235.24 642.992C1235.56 642.889 1235.83 642.69 1236.02 642.424C1236.21 642.157 1236.31 641.838 1236.31 641.51C1236.31 641.182 1236.21 640.862 1236.02 640.596C1235.83 640.33 1235.56 640.131 1235.24 640.027V640.018ZM1225.38 652.437C1225.38 653.92 1225.02 655.381 1224.35 656.701C1223.68 658.021 1222.7 659.163 1221.5 660.032C1220.3 660.902 1218.91 661.474 1217.45 661.703C1215.98 661.932 1214.48 661.81 1213.08 661.347C1211.67 660.885 1210.39 660.095 1209.34 659.043C1208.3 657.991 1207.52 656.706 1207.07 655.295C1206.62 653.883 1206.51 652.384 1206.75 650.922C1206.99 649.459 1207.57 648.074 1208.45 646.881L1215.51 649.225C1215.83 649.332 1216.17 649.332 1216.49 649.225L1223.55 646.881C1224.74 648.49 1225.38 650.438 1225.38 652.437ZM1216 646.104L1202.19 641.5L1216 636.896L1229.81 641.5L1216 646.104Z" fill="white"/>
<defs>
<filter id="filter0_d_5_19" x="39" y="35" width="1205" height="659" filterUnits="userSpaceOnUse" color-interpolation-filters="sRGB">
<feFlood flood-opacity="0" result="BackgroundImageFix"/>
<feColorMatrix in="SourceAlpha" type="matrix" values="0 0 0 0 0 0 0 0 0 0 0 0 0 0 0 0 0 0 127 0" result="hardAlpha"/>
<feOffset dx="8" dy="8"/>
<feGaussianBlur stdDeviation="10"/>
<feComposite in2="hardAlpha" operator="out"/>
<feColorMatrix type="matrix" values="0 0 0 0 0.0641666 0 0 0 0 0.0636853 0 0 0 0 0.0636853 0 0 0 1 0"/>
<feBlend mode="normal" in2="BackgroundImageFix" result="effect1_dropShadow_5_19"/>
<feBlend mode="normal" in="SourceGraphic" in2="effect1_dropShadow_5_19" result="shape"/>
</filter>
<filter id="filter1_d_5_19" x="15" y="193" width="98" height="273" filterUnits="userSpaceOnUse" color-interpolation-filters="sRGB">
<feFlood flood-opacity="0" result="BackgroundImageFix"/>
<feColorMatrix in="SourceAlpha" type="matrix" values="0 0 0 0 0 0 0 0 0 0 0 0 0 0 0 0 0 0 127 0" result="hardAlpha"/>
<feOffset dx="8" dy="8"/>
<feGaussianBlur stdDeviation="10"/>
<feComposite in2="hardAlpha" operator="out"/>
<feColorMatrix type="matrix" values="0 0 0 0 0.0641666 0 0 0 0 0.0636853 0 0 0 0 0.0636853 0 0 0 1 0"/>
<feBlend mode="normal" in2="BackgroundImageFix" result="effect1_dropShadow_5_19"/>
<feBlend mode="normal" in="SourceGraphic" in2="effect1_dropShadow_5_19" result="shape"/>
</filter>
<filter id="filter2_d_5_19" x="340" y="4" width="595" height="103" filterUnits="userSpaceOnUse" color-interpolation-filters="sRGB">
<feFlood flood-opacity="0" result="BackgroundImageFix"/>
<feColorMatrix in="SourceAlpha" type="matrix" values="0 0 0 0 0 0 0 0 0 0 0 0 0 0 0 0 0 0 127 0" result="hardAlpha"/>
<feOffset dx="8" dy="8"/>
<feGaussianBlur stdDeviation="10"/>
<feComposite in2="hardAlpha" operator="out"/>
<feColorMatrix type="matrix" values="0 0 0 0 0.0641666 0 0 0 0 0.0636853 0 0 0 0 0.0636853 0 0 0 1 0"/>
<feBlend mode="normal" in2="BackgroundImageFix" result="effect1_dropShadow_5_19"/>
<feBlend mode="normal" in="SourceGraphic" in2="effect1_dropShadow_5_19" result="shape"/>
</filter>
<filter id="filter3_d_5_19" x="15" y="579" width="90" height="90" filterUnits="userSpaceOnUse" color-interpolation-filters="sRGB">
<feFlood flood-opacity="0" result="BackgroundImageFix"/>
<feColorMatrix in="SourceAlpha" type="matrix" values="0 0 0 0 0 0 0 0 0 0 0 0 0 0 0 0 0 0 127 0" result="hardAlpha"/>
<feOffset dx="8" dy="8"/>
<feGaussianBlur stdDeviation="10"/>
<feComposite in2="hardAlpha" operator="out"/>
<feColorMatrix type="matrix" values="0 0 0 0 0.0641666 0 0 0 0 0.0636853 0 0 0 0 0.0636853 0 0 0 1 0"/>
<feBlend mode="normal" in2="BackgroundImageFix" result="effect1_dropShadow_5_19"/>
<feBlend mode="normal" in="SourceGraphic" in2="effect1_dropShadow_5_19" result="shape"/>
</filter>
<filter id="filter4_d_5_19" x="101" y="587" width="261" height="100" filterUnits="userSpaceOnUse" color-interpolation-filters="sRGB">
<feFlood flood-opacity="0" result="BackgroundImageFix"/>
<feColorMatrix in="SourceAlpha" type="matrix" values="0 0 0 0 0 0 0 0 0 0 0 0 0 0 0 0 0 0 127 0" result="hardAlpha"/>
<feOffset dx="8" dy="8"/>
<feGaussianBlur stdDeviation="10"/>
<feComposite in2="hardAlpha" operator="out"/>
<feColorMatrix type="matrix" values="0 0 0 0 0 0 0 0 0 0 0 0 0 0 0 0 0 0 0.25 0"/>
<feBlend mode="normal" in2="BackgroundImageFix" result="effect1_dropShadow_5_19"/>
<feBlend mode="normal" in="SourceGraphic" in2="effect1_dropShadow_5_19" result="shape"/>
</filter>
<filter id="filter5_d_5_19" x="101" y="519" width="261" height="100" filterUnits="userSpaceOnUse" color-interpolation-filters="sRGB">
<feFlood flood-opacity="0" result="BackgroundImageFix"/>
<feColorMatrix in="SourceAlpha" type="matrix" values="0 0 0 0 0 0 0 0 0 0 0 0 0 0 0 0 0 0 127 0" result="hardAlpha"/>
<feOffset dx="8" dy="8"/>
<feGaussianBlur stdDeviation="10"/>
<feComposite in2="hardAlpha" operator="out"/>
<feColorMatrix type="matrix" values="0 0 0 0 0 0 0 0 0 0 0 0 0 0 0 0 0 0 0.25 0"/>
<feBlend mode="normal" in2="BackgroundImageFix" result="effect1_dropShadow_5_19"/>
<feBlend mode="normal" in="SourceGraphic" in2="effect1_dropShadow_5_19" result="shape"/>
</filter>
<filter id="filter6_d_5_19" x="101" y="447" width="261" height="100" filterUnits="userSpaceOnUse" color-interpolation-filters="sRGB">
<feFlood flood-opacity="0" result="BackgroundImageFix"/>
<feColorMatrix in="SourceAlpha" type="matrix" values="0 0 0 0 0 0 0 0 0 0 0 0 0 0 0 0 0 0 127 0" result="hardAlpha"/>
<feOffset dx="8" dy="8"/>
<feGaussianBlur stdDeviation="10"/>
<feComposite in2="hardAlpha" operator="out"/>
<feColorMatrix type="matrix" values="0 0 0 0 0 0 0 0 0 0 0 0 0 0 0 0 0 0 0.25 0"/>
<feBlend mode="normal" in2="BackgroundImageFix" result="effect1_dropShadow_5_19"/>
<feBlend mode="normal" in="SourceGraphic" in2="effect1_dropShadow_5_19" result="shape"/>
</filter>
<filter id="filter7_d_5_19" x="101" y="371" width="261" height="100" filterUnits="userSpaceOnUse" color-interpolation-filters="sRGB">
<feFlood flood-opacity="0" result="BackgroundImageFix"/>
<feColorMatrix in="SourceAlpha" type="matrix" values="0 0 0 0 0 0 0 0 0 0 0 0 0 0 0 0 0 0 127 0" result="hardAlpha"/>
<feOffset dx="8" dy="8"/>
<feGaussianBlur stdDeviation="10"/>
<feComposite in2="hardAlpha" operator="out"/>
<feColorMatrix type="matrix" values="0 0 0 0 0 0 0 0 0 0 0 0 0 0 0 0 0 0 0.25 0"/>
<feBlend mode="normal" in2="BackgroundImageFix" result="effect1_dropShadow_5_19"/>
<feBlend mode="normal" in="SourceGraphic" in2="effect1_dropShadow_5_19" result="shape"/>
</filter>
<filter id="filter8_d_5_19" x="101" y="208" width="261" height="185" filterUnits="userSpaceOnUse" color-interpolation-filters="sRGB">
<feFlood flood-opacity="0" result="BackgroundImageFix"/>
<feColorMatrix in="SourceAlpha" type="matrix" values="0 0 0 0 0 0 0 0 0 0 0 0 0 0 0 0 0 0 127 0" result="hardAlpha"/>
<feOffset dx="8" dy="8"/>
<feGaussianBlur stdDeviation="10"/>
<feComposite in2="hardAlpha" operator="out"/>
<feColorMatrix type="matrix" values="0 0 0 0 0 0 0 0 0 0 0 0 0 0 0 0 0 0 0.25 0"/>
<feBlend mode="normal" in2="BackgroundImageFix" result="effect1_dropShadow_5_19"/>
<feBlend mode="normal" in="SourceGraphic" in2="effect1_dropShadow_5_19" result="shape"/>
</filter>
<filter id="filter9_d_5_19" x="101" y="48" width="261" height="185" filterUnits="userSpaceOnUse" color-interpolation-filters="sRGB">
<feFlood flood-opacity="0" result="BackgroundImageFix"/>
<feColorMatrix in="SourceAlpha" type="matrix" values="0 0 0 0 0 0 0 0 0 0 0 0 0 0 0 0 0 0 127 0" result="hardAlpha"/>
<feOffset dx="8" dy="8"/>
<feGaussianBlur stdDeviation="10"/>
<feComposite in2="hardAlpha" operator="out"/>
<feColorMatrix type="matrix" values="0 0 0 0 0 0 0 0 0 0 0 0 0 0 0 0 0 0 0.25 0"/>
<feBlend mode="normal" in2="BackgroundImageFix" result="effect1_dropShadow_5_19"/>
<feBlend mode="normal" in="SourceGraphic" in2="effect1_dropShadow_5_19" result="shape"/>
</filter>
<filter id="filter10_d_5_19" x="340" y="98" width="595" height="157" filterUnits="userSpaceOnUse" color-interpolation-filters="sRGB">
<feFlood flood-opacity="0" result="BackgroundImageFix"/>
<feColorMatrix in="SourceAlpha" type="matrix" values="0 0 0 0 0 0 0 0 0 0 0 0 0 0 0 0 0 0 127 0" result="hardAlpha"/>
<feOffset dx="8" dy="8"/>
<feGaussianBlur stdDeviation="10"/>
<feComposite in2="hardAlpha" operator="out"/>
<feColorMatrix type="matrix" values="0 0 0 0 0 0 0 0 0 0 0 0 0 0 0 0 0 0 0.25 0"/>
<feBlend mode="normal" in2="BackgroundImageFix" result="effect1_dropShadow_5_19"/>
<feBlend mode="normal" in="SourceGraphic" in2="effect1_dropShadow_5_19" result="shape"/>
</filter>
<filter id="filter11_d_5_19" x="340" y="235" width="595" height="177" filterUnits="userSpaceOnUse" color-interpolation-filters="sRGB">
<feFlood flood-opacity="0" result="BackgroundImageFix"/>
<feColorMatrix in="SourceAlpha" type="matrix" values="0 0 0 0 0 0 0 0 0 0 0 0 0 0 0 0 0 0 127 0" result="hardAlpha"/>
<feOffset dx="8" dy="8"/>
<feGaussianBlur stdDeviation="10"/>
<feComposite in2="hardAlpha" operator="out"/>
<feColorMatrix type="matrix" values="0 0 0 0 0 0 0 0 0 0 0 0 0 0 0 0 0 0 0.25 0"/>
<feBlend mode="normal" in2="BackgroundImageFix" result="effect1_dropShadow_5_19"/>
<feBlend mode="normal" in="SourceGraphic" in2="effect1_dropShadow_5_19" result="shape"/>
</filter>
<filter id="filter12_d_5_19" x="340" y="382" width="595" height="166" filterUnits="userSpaceOnUse" color-interpolation-filters="sRGB">
<feFlood flood-opacity="0" result="BackgroundImageFix"/>
<feColorMatrix in="SourceAlpha" type="matrix" values="0 0 0 0 0 0 0 0 0 0 0 0 0 0 0 0 0 0 127 0" result="hardAlpha"/>
<feOffset dx="8" dy="8"/>
<feGaussianBlur stdDeviation="10"/>
<feComposite in2="hardAlpha" operator="out"/>
<feColorMatrix type="matrix" values="0 0 0 0 0 0 0 0 0 0 0 0 0 0 0 0 0 0 0.25 0"/>
<feBlend mode="normal" in2="BackgroundImageFix" result="effect1_dropShadow_5_19"/>
<feBlend mode="normal" in="SourceGraphic" in2="effect1_dropShadow_5_19" result="shape"/>
</filter>
<filter id="filter13_d_5_19" x="340" y="517" width="595" height="170" filterUnits="userSpaceOnUse" color-interpolation-filters="sRGB">
<feFlood flood-opacity="0" result="BackgroundImageFix"/>
<feColorMatrix in="SourceAlpha" type="matrix" values="0 0 0 0 0 0 0 0 0 0 0 0 0 0 0 0 0 0 127 0" result="hardAlpha"/>
<feOffset dx="8" dy="8"/>
<feGaussianBlur stdDeviation="10"/>
<feComposite in2="hardAlpha" operator="out"/>
<feColorMatrix type="matrix" values="0 0 0 0 0 0 0 0 0 0 0 0 0 0 0 0 0 0 0.25 0"/>
<feBlend mode="normal" in2="BackgroundImageFix" result="effect1_dropShadow_5_19"/>
<feBlend mode="normal" in="SourceGraphic" in2="effect1_dropShadow_5_19" result="shape"/>
</filter>
<filter id="filter14_d_5_19" x="918" y="48" width="303" height="111" filterUnits="userSpaceOnUse" color-interpolation-filters="sRGB">
<feFlood flood-opacity="0" result="BackgroundImageFix"/>
<feColorMatrix in="SourceAlpha" type="matrix" values="0 0 0 0 0 0 0 0 0 0 0 0 0 0 0 0 0 0 127 0" result="hardAlpha"/>
<feOffset dx="8" dy="8"/>
<feGaussianBlur stdDeviation="10"/>
<feComposite in2="hardAlpha" operator="out"/>
<feColorMatrix type="matrix" values="0 0 0 0 0 0 0 0 0 0 0 0 0 0 0 0 0 0 0.25 0"/>
<feBlend mode="normal" in2="BackgroundImageFix" result="effect1_dropShadow_5_19"/>
<feBlend mode="normal" in="SourceGraphic" in2="effect1_dropShadow_5_19" result="shape"/>
</filter>
<filter id="filter15_d_5_19" x="918" y="127" width="303" height="177" filterUnits="userSpaceOnUse" color-interpolation-filters="sRGB">
<feFlood flood-opacity="0" result="BackgroundImageFix"/>
<feColorMatrix in="SourceAlpha" type="matrix" values="0 0 0 0 0 0 0 0 0 0 0 0 0 0 0 0 0 0 127 0" result="hardAlpha"/>
<feOffset dx="8" dy="8"/>
<feGaussianBlur stdDeviation="10"/>
<feComposite in2="hardAlpha" operator="out"/>
<feColorMatrix type="matrix" values="0 0 0 0 0 0 0 0 0 0 0 0 0 0 0 0 0 0 0.25 0"/>
<feBlend mode="normal" in2="BackgroundImageFix" result="effect1_dropShadow_5_19"/>
<feBlend mode="normal" in="SourceGraphic" in2="effect1_dropShadow_5_19" result="shape"/>
</filter>
<filter id="filter16_d_5_19" x="918" y="277" width="303" height="210" filterUnits="userSpaceOnUse" color-interpolation-filters="sRGB">
<feFlood flood-opacity="0" result="BackgroundImageFix"/>
<feColorMatrix in="SourceAlpha" type="matrix" values="0 0 0 0 0 0 0 0 0 0 0 0 0 0 0 0 0 0 127 0" result="hardAlpha"/>
<feOffset dx="8" dy="8"/>
<feGaussianBlur stdDeviation="10"/>
<feComposite in2="hardAlpha" operator="out"/>
<feColorMatrix type="matrix" values="0 0 0 0 0 0 0 0 0 0 0 0 0 0 0 0 0 0 0.25 0"/>
<feBlend mode="normal" in2="BackgroundImageFix" result="effect1_dropShadow_5_19"/>
<feBlend mode="normal" in="SourceGraphic" in2="effect1_dropShadow_5_19" result="shape"/>
</filter>
<filter id="filter17_d_5_19" x="918" y="457" width="303" height="133" filterUnits="userSpaceOnUse" color-interpolation-filters="sRGB">
<feFlood flood-opacity="0" result="BackgroundImageFix"/>
<feColorMatrix in="SourceAlpha" type="matrix" values="0 0 0 0 0 0 0 0 0 0 0 0 0 0 0 0 0 0 127 0" result="hardAlpha"/>
<feOffset dx="8" dy="8"/>
<feGaussianBlur stdDeviation="10"/>
<feComposite in2="hardAlpha" operator="out"/>
<feColorMatrix type="matrix" values="0 0 0 0 0 0 0 0 0 0 0 0 0 0 0 0 0 0 0.25 0"/>
<feBlend mode="normal" in2="BackgroundImageFix" result="effect1_dropShadow_5_19"/>
<feBlend mode="normal" in="SourceGraphic" in2="effect1_dropShadow_5_19" result="shape"/>
</filter>
<filter id="filter18_d_5_19" x="918" y="558" width="303" height="129" filterUnits="userSpaceOnUse" color-interpolation-filters="sRGB">
<feFlood flood-opacity="0" result="BackgroundImageFix"/>
<feColorMatrix in="SourceAlpha" type="matrix" values="0 0 0 0 0 0 0 0 0 0 0 0 0 0 0 0 0 0 127 0" result="hardAlpha"/>
<feOffset dx="8" dy="8"/>
<feGaussianBlur stdDeviation="10"/>
<feComposite in2="hardAlpha" operator="out"/>
<feColorMatrix type="matrix" values="0 0 0 0 0 0 0 0 0 0 0 0 0 0 0 0 0 0 0.25 0"/>
<feBlend mode="normal" in2="BackgroundImageFix" result="effect1_dropShadow_5_19"/>
<feBlend mode="normal" in="SourceGraphic" in2="effect1_dropShadow_5_19" result="shape"/>
</filter>
<linearGradient id="paint0_linear_5_19" x1="0" y1="0" x2="1280" y2="720" gradientUnits="userSpaceOnUse">
<stop stop-color="#2F2F2F"/>
<stop offset="0.395" stop-color="#929191" stop-opacity="0.605"/>
<stop offset="0.891666" stop-color="#FFFEFE" stop-opacity="0.108334"/>
<stop offset="1" stop-color="#FFFCFC" stop-opacity="0"/>
</linearGradient>
<linearGradient id="paint1_linear_5_19" x1="132.071" y1="599" x2="418.827" y2="765.637" gradientUnits="userSpaceOnUse">
<stop stop-color="#474747"/>
<stop offset="0.6" stop-color="#FFF9F9" stop-opacity="0"/>
</linearGradient>
<linearGradient id="paint2_linear_5_19" x1="132.071" y1="531" x2="418.827" y2="697.637" gradientUnits="userSpaceOnUse">
<stop stop-color="#474747"/>
<stop offset="0.6" stop-color="#FFF9F9" stop-opacity="0"/>
</linearGradient>
<linearGradient id="paint3_linear_5_19" x1="132.071" y1="459" x2="418.827" y2="625.637" gradientUnits="userSpaceOnUse">
<stop stop-color="#474747"/>
<stop offset="0.6" stop-color="#FFF9F9" stop-opacity="0"/>
</linearGradient>
<linearGradient id="paint4_linear_5_19" x1="132.071" y1="383" x2="418.827" y2="549.637" gradientUnits="userSpaceOnUse">
<stop stop-color="#474747"/>
<stop offset="0.6" stop-color="#FFF9F9" stop-opacity="0"/>
</linearGradient>
<linearGradient id="paint5_linear_5_19" x1="132.071" y1="220" x2="494.694" y2="307.196" gradientUnits="userSpaceOnUse">
<stop stop-color="#474747"/>
<stop offset="0.6" stop-color="#FFF9F9" stop-opacity="0"/>
</linearGradient>
<linearGradient id="paint6_linear_5_19" x1="132.071" y1="60" x2="494.694" y2="147.196" gradientUnits="userSpaceOnUse">
<stop stop-color="#474747"/>
<stop offset="0.6" stop-color="#FFF9F9" stop-opacity="0"/>
</linearGradient>
<clipPath id="clip0_5_19">
<rect width="40" height="40" fill="white" transform="translate(120 469)"/>
</clipPath>
<clipPath id="clip1_5_19">
<rect width="40" height="40" fill="white" transform="translate(116 541)"/>
</clipPath>
<clipPath id="clip2_5_19">
<rect width="40" height="40" fill="white" transform="translate(120 392)"/>
</clipPath>
<clipPath id="clip3_5_19">
<rect width="30" height="30" fill="white" transform="translate(36 601)"/>
</clipPath>
</defs>
</svg>
